ffmpeg version N-121490-g7e8ef2ded2-20251024 Copyright (c) 2000-2025 the FFmpeg developers
  built with gcc 15.2.0 (crosstool-NG 1.28.0.1_403899e)
  configuration: --prefix=/ffbuild/prefix --pkg-config-flags=--static --pkg-config=pkg-config --cross-prefix=x86_64-w64-mingw32- --arch=x86_64 --target-os=mingw32 --enable-gpl --enable-version3 --disable-debug --enable-shared --disable-static --disable-w32threads --enable-pthreads --enable-iconv --enable-zlib --enable-libxml2 --enable-libvmaf --enable-fontconfig --enable-libharfbuzz --enable-libfreetype --enable-libfribidi --enable-vulkan --enable-libshaderc --enable-libvorbis --disable-libxcb --disable-xlib --disable-libpulse --enable-opencl --enable-gmp --enable-lzma --enable-amf --enable-libaom --enable-libaribb24 --enable-avisynth --enable-chromaprint --enable-libdav1d --enable-libdavs2 --enable-libdvdread --enable-libdvdnav --disable-libfdk-aac --enable-ffnvcodec --enable-cuda-llvm --enable-frei0r --enable-libgme --enable-libkvazaar --enable-libaribcaption --enable-libass --enable-libbluray --enable-libjxl --enable-libmp3lame --enable-libopus --enable-libplacebo --enable-librist --enable-libssh --enable-libtheora --enable-libvpx --enable-libwebp --enable-libzmq --enable-lv2 --enable-libvpl --enable-openal --enable-liboapv --enable-libopencore-amrnb --enable-libopencore-amrwb --enable-libopenh264 --enable-libopenjpeg --enable-libopenmpt --enable-librav1e --enable-librubberband --enable-schannel --enable-sdl2 --enable-libsnappy --enable-libsoxr --enable-libsrt --enable-libsvtav1 --enable-libtwolame --enable-libuavs3d --disable-libdrm --enable-vaapi --enable-libvidstab --enable-libvvenc --enable-whisper --enable-libx264 --enable-libx265 --enable-libxavs2 --enable-libxvid --enable-libzimg --enable-libzvbi --extra-cflags=-DLIBTWOLAME_STATIC --extra-cxxflags= --extra-libs=-lgomp --extra-ldflags=-pthread --extra-ldexeflags= --cc=x86_64-w64-mingw32-gcc --cxx=x86_64-w64-mingw32-g++ --ar=x86_64-w64-mingw32-gcc-ar --ranlib=x86_64-w64-mingw32-gcc-ranlib --nm=x86_64-w64-mingw32-gcc-nm --extra-version=20251024
  libavutil      60. 13.100 / 60. 13.100
  libavcodec     62. 16.100 / 62. 16.100
  libavformat    62.  6.101 / 62.  6.101
  libavdevice    62.  2.100 / 62.  2.100
  libavfilter    11.  9.100 / 11.  9.100
  libswscale      9.  3.100 /  9.  3.100
  libswresample   6.  2.100 /  6.  2.100
[mov,mp4,m4a,3gp,3g2,mj2 @ 000002b78d306c00] Auto-inserting h264_mp4toannexb bitstream filter
Input #0, concat, from 'C:\Users\UATDE\AppData\Local\Temp\ffmpeg_concat_d7rsm0h6_session_1.txt':
  Duration: N/A, start: -0.042667, bitrate: 3067 kb/s
  Stream #0:0(und): Video: h264 (High) (avc1 / 0x31637661), yuv420p(progressive), 1280x720, 2927 kb/s, 24 fps, 24 tbr, 12288 tbn
    Metadata:
      handler_name    : VideoHandler
      vendor_id       : [0][0][0][0]
  Stream #0:1(und): Audio: aac (LC) (mp4a / 0x6134706D), 48000 Hz, stereo, fltp, 140 kb/s, start -0.042667
    Metadata:
      handler_name    : SoundHandler
      vendor_id       : [0][0][0][0]
Stream mapping:
  Stream #0:0 -> #0:0 (h264 (native) -> h264 (libx264))
  Stream #0:1 -> #0:1 (aac (native) -> aac (native))
Press [q] to stop, [?] for help
[vist#0:0/h264 @ 000002b78d301d40] Resumed reading at pts -0.041 with rate 1.050 after a lag of 0.541s
[libx264 @ 000002b78f3a8900] using cpu capabilities: MMX2 SSE2Fast SSSE3 SSE4.2 AVX FMA3 BMI2 AVX2
[libx264 @ 000002b78f3a8900] profile High, level 3.1, 4:2:0, 8-bit
[libx264 @ 000002b78f3a8900] 264 - core 165 - H.264/MPEG-4 AVC codec - Copyleft 2003-2025 - http://www.videolan.org/x264.html - options: cabac=1 ref=1 deblock=1:0:0 analyse=0x3:0x113 me=hex subme=2 psy=1 psy_rd=1.00:0.00 mixed_ref=0 me_range=16 chroma_me=1 trellis=0 8x8dct=1 cqm=0 deadzone=21,11 fast_pskip=1 chroma_qp_offset=0 threads=18 lookahead_threads=5 sliced_threads=0 nr=0 decimate=1 interlaced=0 bluray_compat=0 constrained_intra=0 bframes=3 b_pyramid=2 b_adapt=1 b_bias=0 direct=1 weightb=1 open_gop=0 weightp=1 keyint=60 keyint_min=6 scenecut=40 intra_refresh=0 rc_lookahead=10 rc=crf mbtree=1 crf=23.0 qcomp=0.60 qpmin=0 qpmax=69 qpstep=4 vbv_maxrate=3000 vbv_bufsize=6000 crf_max=0.0 nal_hrd=none filler=0 ip_ratio=1.40 aq=1:1.00
Output #0, flv, to 'rtmp://a.rtmp.youtube.com/live2/qbft-ttqa-tvd8-h27c-fvy5':
  Metadata:
    encoder         : Lavf62.6.101
  Stream #0:0(und): Video: h264 ([7][0][0][0] / 0x0007), yuv420p(tv, progressive), 1280x720, q=2-31, 24 fps, 1k tbn
    Metadata:
      encoder         : Lavc62.16.100 libx264
      handler_name    : VideoHandler
      vendor_id       : [0][0][0][0]
    Side data:
      CPB properties: bitrate max/min/avg: 3000000/0/0 buffer size: 6000000 vbv_delay: N/A
  Stream #0:1(und): Audio: aac (LC) ([10][0][0][0] / 0x000A), 44100 Hz, stereo, fltp, 128 kb/s
    Metadata:
      encoder         : Lavc62.16.100 aac
      handler_name    : SoundHandler
      vendor_id       : [0][0][0][0]
frame=    0 fps=0.0 q=0.0 size=       0KiB time=N/A bitrate=N/A speed=N/A elapsed=0:00:01.02    frame=    0 fps=0.0 q=0.0 size=       0KiB time=N/A bitrate=N/A speed=N/A elapsed=0:00:01.54    frame=    1 fps=0.5 q=28.0 size=       0KiB time=00:00:00.12 bitrate=  26.0kbits/s speed=0.0609x elapsed=0:00:02.05    frame=   12 fps=4.7 q=28.0 size=     113KiB time=00:00:00.54 bitrate=1710.0kbits/s speed=0.211x elapsed=0:00:02.57    frame=   28 fps=9.1 q=28.0 size=     226KiB time=00:00:01.20 bitrate=1529.6kbits/s speed=0.392x elapsed=0:00:03.08    frame=   42 fps= 12 q=28.0 size=     374KiB time=00:00:01.79 bitrate=1709.6kbits/s speed=0.497x elapsed=0:00:03.60    frame=   54 fps= 13 q=28.0 size=     508KiB time=00:00:02.33 bitrate=1784.8kbits/s speed=0.567x elapsed=0:00:04.11    frame=   62 fps= 13 q=28.0 size=     653KiB time=00:00:02.66 bitrate=2006.3kbits/s speed=0.574x elapsed=0:00:04.64    frame=   76 fps= 15 q=28.0 size=     789KiB time=00:00:03.25 bitrate=1988.1kbits/s speed=0.63x elapsed=0:00:05.15    frame=   88 fps= 16 q=28.0 size=     903KiB time=00:00:03.70 bitrate=1995.7kbits/s speed=0.654x elapsed=0:00:05.67    frame=  101 fps= 16 q=25.0 size=    1051KiB time=00:00:04.25 bitrate=2026.3kbits/s speed=0.688x elapsed=0:00:06.18    frame=  115 fps= 17 q=28.0 size=    1185KiB time=00:00:04.87 bitrate=1991.8kbits/s speed=0.728x elapsed=0:00:06.69    frame=  122 fps= 17 q=28.0 size=    1308KiB time=00:00:05.16 bitrate=2074.0kbits/s speed=0.716x elapsed=0:00:07.21    frame=  136 fps= 18 q=28.0 size=    1436KiB time=00:00:05.70 bitrate=2060.3kbits/s speed=0.739x elapsed=0:00:07.72    frame=  152 fps= 18 q=28.0 size=    1573KiB time=00:00:06.54 bitrate=1969.3kbits/s speed=0.794x elapsed=0:00:08.24    frame=  168 fps= 19 q=28.0 size=    1696KiB time=00:00:07.04 bitrate=1972.5kbits/s speed=0.804x elapsed=0:00:08.76    frame=  181 fps= 20 q=28.0 size=    1789KiB time=00:00:07.58 bitrate=1932.8kbits/s speed=0.818x elapsed=0:00:09.27    frame=  192 fps= 20 q=28.0 size=    1925KiB time=00:00:08.04 bitrate=1960.7kbits/s speed=0.82x elapsed=0:00:09.80    frame=  213 fps= 21 q=28.0 size=    2077KiB time=00:00:08.91 bitrate=1908.6kbits/s speed=0.864x elapsed=0:00:10.31    frame=  226 fps= 21 q=28.0 size=    2191KiB time=00:00:09.41 bitrate=1906.1kbits/s speed=0.868x elapsed=0:00:10.84    frame=  239 fps= 21 q=28.0 size=    2319KiB time=00:00:09.95 bitrate=1907.9kbits/s speed=0.877x elapsed=0:00:11.35    frame=  244 fps= 21 q=28.0 size=    2442KiB time=00:00:10.29 bitrate=1944.1kbits/s speed=0.867x elapsed=0:00:11.87    frame=  256 fps= 21 q=28.0 size=    2571KiB time=00:00:10.83 bitrate=1944.2kbits/s speed=0.875x elapsed=0:00:12.38    frame=  271 fps= 21 q=28.0 size=    2712KiB time=00:00:11.41 bitrate=1945.8kbits/s speed=0.884x elapsed=0:00:12.90    frame=  284 fps= 21 q=28.0 size=    2838KiB time=00:00:11.95 bitrate=1943.9kbits/s speed=0.891x elapsed=0:00:13.41    frame=  296 fps= 21 q=28.0 size=    2961KiB time=00:00:12.41 bitrate=1953.7kbits/s speed=0.891x elapsed=0:00:13.93    frame=  303 fps= 21 q=28.0 size=    3104KiB time=00:00:12.70 bitrate=2000.8kbits/s speed=0.88x elapsed=0:00:14.44    [vist#0:0/h264 @ 000002b78d301d40] Resumed reading at pts 14.835 with rate 1.050 after a lag of 0.305s
[aist#0:1/aac @ 000002b78d2fd000] Resumed reading at pts 14.869 with rate 1.050 after a lag of 0.325s
frame=  318 fps= 21 q=28.0 size=    3235KiB time=00:00:13.25 bitrate=2000.2kbits/s speed=0.885x elapsed=0:00:14.97    frame=  331 fps= 21 q=28.0 size=    3369KiB time=00:00:13.79 bitrate=2001.0kbits/s speed=0.891x elapsed=0:00:15.48    frame=  345 fps= 22 q=28.0 size=    3491KiB time=00:00:14.66 bitrate=1949.8kbits/s speed=0.917x elapsed=0:00:15.99    frame=  356 fps= 22 q=28.0 size=    3568KiB time=00:00:14.83 bitrate=1970.7kbits/s speed=0.899x elapsed=0:00:16.50    frame=  365 fps= 21 q=28.0 size=    3705KiB time=00:00:15.33 bitrate=1979.4kbits/s speed=0.901x elapsed=0:00:17.02    frame=  382 fps= 22 q=28.0 size=    3802KiB time=00:00:15.91 bitrate=1956.9kbits/s speed=0.908x elapsed=0:00:17.53    frame=  395 fps= 22 q=28.0 size=    3890KiB time=00:00:16.50 bitrate=1931.3kbits/s speed=0.913x elapsed=0:00:18.06    frame=  408 fps= 22 q=28.0 size=    3988KiB time=00:00:17.04 bitrate=1917.0kbits/s speed=0.918x elapsed=0:00:18.57    frame=  421 fps= 22 q=28.0 size=    4083KiB time=00:00:17.58 bitrate=1902.2kbits/s speed=0.921x elapsed=0:00:19.08    frame=  426 fps= 22 q=28.0 size=    4201KiB time=00:00:17.91 bitrate=1920.7kbits/s speed=0.914x elapsed=0:00:19.60    frame=  433 fps= 22 q=28.0 size=    4286KiB time=00:00:18.20 bitrate=1928.3kbits/s speed=0.905x elapsed=0:00:20.12    frame=  443 fps= 21 q=28.0 size=    4407KiB time=00:00:18.58 bitrate=1942.8kbits/s speed= 0.9x elapsed=0:00:20.64    [vist#0:0/h264 @ 000002b78d301d40] Resumed reading at pts 20.586 with rate 1.050 after a lag of 0.608s
frame=  456 fps= 22 q=28.0 size=    4526KiB time=00:00:19.12 bitrate=1938.6kbits/s speed=0.904x elapsed=0:00:21.16    frame=  469 fps= 22 q=28.0 size=    4663KiB time=00:00:19.66 bitrate=1942.4kbits/s speed=0.907x elapsed=0:00:21.67    frame=  481 fps= 22 q=28.0 size=    4770KiB time=00:00:20.16 bitrate=1937.7kbits/s speed=0.909x elapsed=0:00:22.19    frame=  492 fps= 22 q=28.0 size=    4942KiB time=00:00:20.66 bitrate=1958.8kbits/s speed=0.91x elapsed=0:00:22.70    frame=  505 fps= 22 q=28.0 size=    5079KiB time=00:00:21.20 bitrate=1961.9kbits/s speed=0.913x elapsed=0:00:23.23    frame=  520 fps= 22 q=28.0 size=    5207KiB time=00:00:21.79 bitrate=1957.4kbits/s speed=0.918x elapsed=0:00:23.73    frame=  534 fps= 22 q=28.0 size=    5338KiB time=00:00:22.58 bitrate=1936.3kbits/s speed=0.931x elapsed=0:00:24.25    frame=  542 fps= 22 q=28.0 size=    5467KiB time=00:00:22.70 bitrate=1972.4kbits/s speed=0.916x elapsed=0:00:24.78    frame=  561 fps= 22 q=28.0 size=    5607KiB time=00:00:23.45 bitrate=1958.0kbits/s speed=0.927x elapsed=0:00:25.29    frame=  574 fps= 22 q=28.0 size=    5685KiB time=00:00:23.95 bitrate=1944.0kbits/s speed=0.929x elapsed=0:00:25.80    frame=  588 fps= 22 q=28.0 size=    5773KiB time=00:00:24.58 bitrate=1923.9kbits/s speed=0.934x elapsed=0:00:26.32    frame=  601 fps= 22 q=28.0 size=    5858KiB time=00:00:25.12 bitrate=1909.9kbits/s speed=0.936x elapsed=0:00:26.84    frame=  610 fps= 22 q=28.0 size=    6006KiB time=00:00:25.58 bitrate=1923.1kbits/s speed=0.935x elapsed=0:00:27.35    frame=  621 fps= 22 q=28.0 size=    6135KiB time=00:00:26.04 bitrate=1929.8kbits/s speed=0.934x elapsed=0:00:27.86    frame=  633 fps= 22 q=28.0 size=    6273KiB time=00:00:26.66 bitrate=1926.9kbits/s speed=0.94x elapsed=0:00:28.38    frame=  647 fps= 22 q=28.0 size=    6405KiB time=00:00:27.16 bitrate=1931.5kbits/s speed=0.94x elapsed=0:00:28.89    frame=  661 fps= 22 q=28.0 size=    6535KiB time=00:00:27.70 bitrate=1932.2kbits/s speed=0.942x elapsed=0:00:29.42    frame=  668 fps= 22 q=28.0 size=    6667KiB time=00:00:28.04 bitrate=1947.7kbits/s speed=0.937x elapsed=0:00:29.93    frame=  680 fps= 22 q=28.0 size=    6790KiB time=00:00:28.54 bitrate=1948.8kbits/s speed=0.937x elapsed=0:00:30.44    frame=  692 fps= 22 q=28.0 size=    6910KiB time=00:00:29.00 bitrate=1951.9kbits/s speed=0.937x elapsed=0:00:30.95    frame=  705 fps= 22 q=28.0 size=    7047KiB time=00:00:29.54 bitrate=1954.2kbits/s speed=0.939x elapsed=0:00:31.47    frame=  721 fps= 23 q=28.0 size=    7171KiB time=00:00:30.20 bitrate=1944.6kbits/s speed=0.944x elapsed=0:00:32.00    frame=  728 fps= 22 q=28.0 size=    7295KiB time=00:00:30.62 bitrate=1951.5kbits/s speed=0.942x elapsed=0:00:32.51    [vist#0:0/h264 @ 000002b78d301d40] Resumed reading at pts 32.130 with rate 1.050 after a lag of 0.934s
[aist#0:1/aac @ 000002b78d2fd000] Resumed reading at pts 32.171 with rate 1.050 after a lag of 0.936s
frame=  736 fps= 22 q=28.0 size=    7373KiB time=00:00:30.75 bitrate=1964.1kbits/s speed=0.931x elapsed=0:00:33.03    frame=  747 fps= 22 q=28.0 size=    7451KiB time=00:00:31.20 bitrate=1955.8kbits/s speed=0.93x elapsed=0:00:33.55    frame=  760 fps= 22 q=28.0 size=    7536KiB time=00:00:31.75 bitrate=1944.3kbits/s speed=0.932x elapsed=0:00:34.06    frame=  773 fps= 22 q=28.0 size=    7626KiB time=00:00:32.33 bitrate=1932.1kbits/s speed=0.935x elapsed=0:00:34.59    frame=  781 fps= 22 q=28.0 size=    7658KiB time=00:00:32.79 bitrate=1913.0kbits/s speed=0.934x elapsed=0:00:35.10    frame=  797 fps= 22 q=28.0 size=    7864KiB time=00:00:33.41 bitrate=1927.8kbits/s speed=0.938x elapsed=0:00:35.62    frame=  812 fps= 22 q=28.0 size=    8005KiB time=00:00:33.95 bitrate=1931.2kbits/s speed=0.94x elapsed=0:00:36.13    frame=  823 fps= 22 q=28.0 size=    8134KiB time=00:00:34.50 bitrate=1931.4kbits/s speed=0.941x elapsed=0:00:36.64    frame=  836 fps= 22 q=28.0 size=    8265KiB time=00:00:35.04 bitrate=1932.2kbits/s speed=0.943x elapsed=0:00:37.16    frame=  842 fps= 22 q=28.0 size=    8383KiB time=00:00:35.33 bitrate=1943.5kbits/s speed=0.937x elapsed=0:00:37.68    frame=  856 fps= 22 q=28.0 size=    8514KiB time=00:00:35.91 bitrate=1941.8kbits/s speed=0.94x elapsed=0:00:38.20    frame=  868 fps= 22 q=28.0 size=    8641KiB time=00:00:36.41 bitrate=1943.7kbits/s speed=0.941x elapsed=0:00:38.71    frame=  881 fps= 22 q=25.0 size=    8782KiB time=00:00:36.91 bitrate=1948.8kbits/s speed=0.941x elapsed=0:00:39.23    frame=  896 fps= 23 q=28.0 size=    8910KiB time=00:00:37.58 bitrate=1942.1kbits/s speed=0.946x elapsed=0:00:39.74    frame=  902 fps= 22 q=28.0 size=    9038KiB time=00:00:37.83 bitrate=1956.9kbits/s speed=0.94x elapsed=0:00:40.26    frame=  917 fps= 22 q=28.0 size=    9174KiB time=00:00:38.54 bitrate=1949.9kbits/s speed=0.945x elapsed=0:00:40.77    frame=  934 fps= 23 q=28.0 size=    9304KiB time=00:00:39.12 bitrate=1948.1kbits/s speed=0.947x elapsed=0:00:41.29    frame=  954 fps= 23 q=28.0 size=    9431KiB time=00:00:39.87 bitrate=1937.5kbits/s speed=0.954x elapsed=0:00:41.80    frame=  961 fps= 23 q=28.0 size=    9465KiB time=00:00:40.29 bitrate=1924.5kbits/s speed=0.952x elapsed=0:00:42.31    frame=  980 fps= 23 q=28.0 size=    9653KiB time=00:00:41.00 bitrate=1928.7kbits/s speed=0.957x elapsed=0:00:42.84    frame=  993 fps= 23 q=28.0 size=    9769KiB time=00:00:41.54 bitrate=1926.4kbits/s speed=0.958x elapsed=0:00:43.35    frame= 1006 fps= 23 q=28.0 size=    9905KiB time=00:00:42.08 bitrate=1928.0kbits/s speed=0.959x elapsed=0:00:43.87    frame= 1017 fps= 23 q=28.0 size=   10031KiB time=00:00:42.62 bitrate=1927.8kbits/s speed=0.96x elapsed=0:00:44.38    frame= 1023 fps= 23 q=28.0 size=   10159KiB time=00:00:42.91 bitrate=1939.1kbits/s speed=0.956x elapsed=0:00:44.89    frame= 1036 fps= 23 q=28.0 size=   10274KiB time=00:00:43.45 bitrate=1936.7kbits/s speed=0.957x elapsed=0:00:45.42    frame= 1051 fps= 23 q=28.0 size=   10427KiB time=00:00:44.08 bitrate=1937.6kbits/s speed=0.96x elapsed=0:00:45.93    frame= 1064 fps= 23 q=28.0 size=   10554KiB time=00:00:44.62 bitrate=1937.5kbits/s speed=0.961x elapsed=0:00:46.45    frame= 1076 fps= 23 q=28.0 size=   10675KiB time=00:00:45.08 bitrate=1939.7kbits/s speed=0.96x elapsed=0:00:46.96    frame= 1084 fps= 23 q=28.0 size=   10818KiB time=00:00:45.45 bitrate=1949.4kbits/s speed=0.957x elapsed=0:00:47.48    frame= 1098 fps= 23 q=28.0 size=   10949KiB time=00:00:46.00 bitrate=1950.0kbits/s speed=0.958x elapsed=0:00:47.99    frame= 1112 fps= 23 q=28.0 size=   11057KiB time=00:00:46.66 bitrate=1941.1kbits/s speed=0.962x elapsed=0:00:48.50    frame= 1130 fps= 23 q=28.0 size=   11197KiB time=00:00:47.37 bitrate=1936.1kbits/s speed=0.966x elapsed=0:00:49.02    frame= 1141 fps= 23 q=28.0 size=   11274KiB time=00:00:47.79 bitrate=1932.5kbits/s speed=0.965x elapsed=0:00:49.53    frame= 1161 fps= 23 q=28.0 size=   11478KiB time=00:00:48.58 bitrate=1935.4kbits/s speed=0.97x elapsed=0:00:50.06    frame= 1174 fps= 23 q=28.0 size=   11568KiB time=00:00:49.12 bitrate=1929.1kbits/s speed=0.971x elapsed=0:00:50.56    frame= 1187 fps= 23 q=28.0 size=   11680KiB time=00:00:49.66 bitrate=1926.5kbits/s speed=0.972x elapsed=0:00:51.09    frame= 1200 fps= 23 q=28.0 size=   11809KiB time=00:00:50.20 bitrate=1926.8kbits/s speed=0.973x elapsed=0:00:51.60    frame= 1206 fps= 23 q=28.0 size=   11938KiB time=00:00:50.58 bitrate=1933.3kbits/s speed=0.971x elapsed=0:00:52.11    frame= 1218 fps= 23 q=28.0 size=   12065KiB time=00:00:51.12 bitrate=1933.2kbits/s speed=0.971x elapsed=0:00:52.64    frame= 1232 fps= 23 q=28.0 size=   12201KiB time=00:00:51.66 bitrate=1934.6kbits/s speed=0.972x elapsed=0:00:53.17    frame= 1244 fps= 23 q=28.0 size=   12322KiB time=00:00:52.16 bitrate=1935.0kbits/s speed=0.972x elapsed=0:00:53.67    frame= 1257 fps= 23 q=28.0 size=   12470KiB time=00:00:52.66 bitrate=1939.6kbits/s speed=0.972x elapsed=0:00:54.20    frame= 1265 fps= 23 q=28.0 size=   12601KiB time=00:00:53.04 bitrate=1946.1kbits/s speed=0.969x elapsed=0:00:54.71    frame= 1278 fps= 23 q=28.0 size=   12720KiB time=00:00:53.54 bitrate=1946.2kbits/s speed=0.969x elapsed=0:00:55.22    frame= 1292 fps= 23 q=28.0 size=   12854KiB time=00:00:54.12 bitrate=1945.5kbits/s speed=0.971x elapsed=0:00:55.74    [vist#0:0/h264 @ 000002b78d301d40] Resumed reading at pts 56.258 with rate 1.050 after a lag of 0.332s
frame= 1308 fps= 23 q=28.0 size=   12989KiB time=00:00:54.87 bitrate=1939.1kbits/s speed=0.975x elapsed=0:00:56.26    frame= 1315 fps= 23 q=28.0 size=   13053KiB time=00:00:55.00 bitrate=1944.2kbits/s speed=0.969x elapsed=0:00:56.77    frame= 1325 fps= 23 q=28.0 size=   13190KiB time=00:00:55.50 bitrate=1946.9kbits/s speed=0.969x elapsed=0:00:57.29    frame= 1342 fps= 23 q=28.0 size=   13287KiB time=00:00:56.12 bitrate=1939.4kbits/s speed=0.971x elapsed=0:00:57.81    frame= 1355 fps= 23 q=28.0 size=   13373KiB time=00:00:56.70 bitrate=1931.9kbits/s speed=0.972x elapsed=0:00:58.33    frame= 1368 fps= 23 q=28.0 size=   13454KiB time=00:00:57.25 bitrate=1925.1kbits/s speed=0.973x elapsed=0:00:58.86    frame= 1381 fps= 23 q=28.0 size=   13568KiB time=00:00:57.79 bitrate=1923.2kbits/s speed=0.973x elapsed=0:00:59.37    frame= 1386 fps= 23 q=28.0 size=   13686KiB time=00:00:58.16 bitrate=1927.5kbits/s speed=0.971x elapsed=0:00:59.88    frame= 1398 fps= 23 q=28.0 size=   13822KiB time=00:00:58.62 bitrate=1931.4kbits/s speed=0.971x elapsed=0:01:00.40    frame= 1411 fps= 23 q=28.0 size=   13969KiB time=00:00:59.12 bitrate=1935.5kbits/s speed=0.971x elapsed=0:01:00.91    frame= 1424 fps= 23 q=28.0 size=   14087KiB time=00:00:59.66 bitrate=1934.1kbits/s speed=0.971x elapsed=0:01:01.42    frame= 1437 fps= 23 q=28.0 size=   14229KiB time=00:01:00.25 bitrate=1934.7kbits/s speed=0.973x elapsed=0:01:01.94    frame= 1444 fps= 23 q=28.0 size=   14348KiB time=00:01:00.50 bitrate=1942.7kbits/s speed=0.969x elapsed=0:01:02.46    frame= 1458 fps= 23 q=28.0 size=   14495KiB time=00:01:01.08 bitrate=1944.0kbits/s speed=0.97x elapsed=0:01:02.98    frame= 1472 fps= 23 q=28.0 size=   14615KiB time=00:01:01.66 bitrate=1941.6kbits/s speed=0.971x elapsed=0:01:03.49    frame= 1487 fps= 23 q=28.0 size=   14757KiB time=00:01:02.29 bitrate=1940.7kbits/s speed=0.973x elapsed=0:01:04.01    frame= 1501 fps= 23 q=28.0 size=   14869KiB time=00:01:02.91 bitrate=1936.0kbits/s speed=0.975x elapsed=0:01:04.52    frame= 1511 fps= 23 q=28.0 size=   15018KiB time=00:01:03.33 bitrate=1942.5kbits/s speed=0.974x elapsed=0:01:05.03    frame= 1530 fps= 23 q=28.0 size=   15141KiB time=00:01:04.08 bitrate=1935.5kbits/s speed=0.977x elapsed=0:01:05.56    frame= 1545 fps= 23 q=28.0 size=   15240KiB time=00:01:04.66 bitrate=1930.6kbits/s speed=0.979x elapsed=0:01:06.06    frame= 1557 fps= 23 q=28.0 size=   15331KiB time=00:01:05.16 bitrate=1927.3kbits/s speed=0.979x elapsed=0:01:06.59    frame= 1566 fps= 23 q=28.0 size=   15455KiB time=00:01:05.66 bitrate=1928.1kbits/s speed=0.979x elapsed=0:01:07.10    frame= 1578 fps= 23 q=28.0 size=   15587KiB time=00:01:06.12 bitrate=1931.0kbits/s speed=0.978x elapsed=0:01:07.61    frame= 1589 fps= 23 q=28.0 size=   15710KiB time=00:01:06.58 bitrate=1932.9kbits/s speed=0.977x elapsed=0:01:08.14    frame= 1601 fps= 23 q=28.0 size=   15841KiB time=00:01:07.12 bitrate=1933.2kbits/s speed=0.978x elapsed=0:01:08.65    frame= 1615 fps= 23 q=28.0 size=   15967KiB time=00:01:07.70 bitrate=1931.9kbits/s speed=0.979x elapsed=0:01:09.16    frame= 1622 fps= 23 q=28.0 size=   16093KiB time=00:01:07.91 bitrate=1941.1kbits/s speed=0.975x elapsed=0:01:09.67    frame= 1634 fps= 23 q=28.0 size=   16226KiB time=00:01:08.50 bitrate=1940.5kbits/s speed=0.976x elapsed=0:01:10.20    frame= 1648 fps= 23 q=28.0 size=   16353KiB time=00:01:09.08 bitrate=1939.1kbits/s speed=0.977x elapsed=0:01:10.71    frame= 1660 fps= 23 q=28.0 size=   16471KiB time=00:01:09.54 bitrate=1940.3kbits/s speed=0.976x elapsed=0:01:11.22    frame= 1676 fps= 23 q=28.0 size=   16618KiB time=00:01:10.25 bitrate=1937.8kbits/s speed=0.979x elapsed=0:01:11.75    [vist#0:0/h264 @ 000002b78d301d40] Resumed reading at pts 72.343 with rate 1.050 after a lag of 0.397s
frame= 1684 fps= 23 q=28.0 size=   16752KiB time=00:01:10.62 bitrate=1943.1kbits/s speed=0.977x elapsed=0:01:12.26    frame= 1696 fps= 23 q=28.0 size=   16858KiB time=00:01:10.95 bitrate=1946.2kbits/s speed=0.975x elapsed=0:01:12.77    frame= 1708 fps= 23 q=28.0 size=   16950KiB time=00:01:11.45 bitrate=1943.2kbits/s speed=0.975x elapsed=0:01:13.28    frame= 1721 fps= 23 q=28.0 size=   17023KiB time=00:01:12.00 bitrate=1936.8kbits/s speed=0.975x elapsed=0:01:13.81    frame= 1735 fps= 23 q=28.0 size=   17112KiB time=00:01:12.62 bitrate=1930.2kbits/s speed=0.977x elapsed=0:01:14.32    frame= 1742 fps= 23 q=28.0 size=   17234KiB time=00:01:13.00 bitrate=1934.0kbits/s speed=0.975x elapsed=0:01:14.83    frame= 1760 fps= 23 q=28.0 size=   17364KiB time=00:01:13.66 bitrate=1931.0kbits/s speed=0.978x elapsed=0:01:15.35    frame= 1772 fps= 23 q=28.0 size=   17490KiB time=00:01:14.25 bitrate=1929.7kbits/s speed=0.979x elapsed=0:01:15.87    frame= 1784 fps= 23 q=28.0 size=   17624KiB time=00:01:14.75 bitrate=1931.5kbits/s speed=0.979x elapsed=0:01:16.38    frame= 1796 fps= 23 q=28.0 size=   17750KiB time=00:01:15.25 bitrate=1932.4kbits/s speed=0.978x elapsed=0:01:16.90    frame= 1804 fps= 23 q=28.0 size=   17886KiB time=00:01:15.58 bitrate=1938.6kbits/s speed=0.976x elapsed=0:01:17.41    frame= 1817 fps= 23 q=28.0 size=   18023KiB time=00:01:16.12 bitrate=1939.5kbits/s speed=0.977x elapsed=0:01:17.93    frame= 1829 fps= 23 q=28.0 size=   18146KiB time=00:01:16.66 bitrate=1939.0kbits/s speed=0.977x elapsed=0:01:18.44    frame= 1842 fps= 23 q=25.0 size=   18275KiB time=00:01:17.12 bitrate=1941.1kbits/s speed=0.977x elapsed=0:01:18.95    frame= 1856 fps= 23 q=28.0 size=   18395KiB time=00:01:17.79 bitrate=1937.1kbits/s speed=0.979x elapsed=0:01:19.47    frame= 1863 fps= 23 q=28.0 size=   18534KiB time=00:01:18.08 bitrate=1944.5kbits/s speed=0.976x elapsed=0:01:19.99    frame= 1880 fps= 23 q=28.0 size=   18673KiB time=00:01:18.87 bitrate=1939.3kbits/s speed=0.98x elapsed=0:01:20.51    frame= 1898 fps= 23 q=28.0 size=   18810KiB time=00:01:19.54 bitrate=1937.3kbits/s speed=0.982x elapsed=0:01:21.02    frame= 1914 fps= 23 q=28.0 size=   18929KiB time=00:01:20.08 bitrate=1936.3kbits/s speed=0.982x elapsed=0:01:21.53    frame= 1921 fps= 23 q=28.0 size=   18951KiB time=00:01:20.54 bitrate=1927.5kbits/s speed=0.981x elapsed=0:01:22.06    frame= 1939 fps= 23 q=28.0 size=   19136KiB time=00:01:21.16 bitrate=1931.3kbits/s speed=0.983x elapsed=0:01:22.57    frame= 1951 fps= 23 q=28.0 size=   19232KiB time=00:01:21.66 bitrate=1929.1kbits/s speed=0.983x elapsed=0:01:23.08    frame= 1963 fps= 23 q=28.0 size=   19357KiB time=00:01:22.16 bitrate=1929.9kbits/s speed=0.983x elapsed=0:01:23.60    frame= 1976 fps= 23 q=28.0 size=   19491KiB time=00:01:22.70 bitrate=1930.5kbits/s speed=0.983x elapsed=0:01:24.12    frame= 1981 fps= 23 q=28.0 size=   19546KiB time=00:01:23.04 bitrate=1928.2kbits/s speed=0.981x elapsed=0:01:24.63    frame= 1993 fps= 23 q=28.0 size=   19743KiB time=00:01:23.50 bitrate=1936.9kbits/s speed=0.981x elapsed=0:01:25.14    frame= 2008 fps= 23 q=28.0 size=   19874KiB time=00:01:24.16 bitrate=1934.4kbits/s speed=0.983x elapsed=0:01:25.66    frame= 2021 fps= 23 q=25.0 size=   20022KiB time=00:01:24.66 bitrate=1937.2kbits/s speed=0.982x elapsed=0:01:26.18    frame= 2034 fps= 23 q=28.0 size=   20152KiB time=00:01:25.16 bitrate=1938.3kbits/s speed=0.982x elapsed=0:01:26.70    frame= 2042 fps= 23 q=28.0 size=   20279KiB time=00:01:25.54 bitrate=1942.1kbits/s speed=0.981x elapsed=0:01:27.21    frame= 2056 fps= 23 q=28.0 size=   20407KiB time=00:01:26.20 bitrate=1939.2kbits/s speed=0.983x elapsed=0:01:27.73    frame= 2072 fps= 23 q=28.0 size=   20544KiB time=00:01:26.91 bitrate=1936.3kbits/s speed=0.985x elapsed=0:01:28.24    frame= 2086 fps= 24 q=28.0 size=   20661KiB time=00:01:27.29 bitrate=1939.0kbits/s speed=0.983x elapsed=0:01:28.75    frame= 2098 fps= 24 q=28.0 size=   20754KiB time=00:01:27.79 bitrate=1936.6kbits/s speed=0.983x elapsed=0:01:29.26    frame= 2108 fps= 23 q=28.0 size=   20879KiB time=00:01:28.33 bitrate=1936.3kbits/s speed=0.984x elapsed=0:01:29.79    frame= 2123 fps= 24 q=28.0 size=   20979KiB time=00:01:28.87 bitrate=1933.7kbits/s speed=0.984x elapsed=0:01:30.30    frame= 2136 fps= 24 q=28.0 size=   21060KiB time=00:01:29.41 bitrate=1929.4kbits/s speed=0.984x elapsed=0:01:30.82    frame= 2148 fps= 24 q=28.0 size=   21185KiB time=00:01:29.91 bitrate=1930.1kbits/s speed=0.984x elapsed=0:01:31.34    frame= 2160 fps= 24 q=28.0 size=   21304KiB time=00:01:30.41 bitrate=1930.2kbits/s speed=0.984x elapsed=0:01:31.85    frame= 2166 fps= 23 q=28.0 size=   21424KiB time=00:01:30.79 bitrate=1933.0kbits/s speed=0.983x elapsed=0:01:32.36    frame= 2180 fps= 23 q=28.0 size=   21573KiB time=00:01:31.37 bitrate=1934.1kbits/s speed=0.984x elapsed=0:01:32.87    frame= 2192 fps= 23 q=28.0 size=   21687KiB time=00:01:31.87 bitrate=1933.7kbits/s speed=0.984x elapsed=0:01:33.39    frame= 2205 fps= 23 q=28.0 size=   21829KiB time=00:01:32.37 bitrate=1935.8kbits/s speed=0.984x elapsed=0:01:33.92    frame= 2217 fps= 23 q=28.0 size=   21955KiB time=00:01:32.87 bitrate=1936.5kbits/s speed=0.984x elapsed=0:01:34.42    frame= 2226 fps= 23 q=28.0 size=   22091KiB time=00:01:33.37 bitrate=1938.1kbits/s speed=0.983x elapsed=0:01:34.94    frame= 2239 fps= 23 q=28.0 size=   22228KiB time=00:01:33.83 bitrate=1940.6kbits/s speed=0.983x elapsed=0:01:35.46    frame= 2254 fps= 23 q=28.0 size=   22364KiB time=00:01:34.41 bitrate=1940.4kbits/s speed=0.984x elapsed=0:01:35.98    frame= 2269 fps= 24 q=28.0 size=   22490KiB time=00:01:35.08 bitrate=1937.7kbits/s speed=0.985x elapsed=0:01:36.49    frame= 2281 fps= 24 q=28.0 size=   22565KiB time=00:01:35.54 bitrate=1934.8kbits/s speed=0.985x elapsed=0:01:37.00    frame= 2296 fps= 24 q=28.0 size=   22733KiB time=00:01:36.08 bitrate=1938.2kbits/s speed=0.985x elapsed=0:01:37.53    frame= 2308 fps= 24 q=28.0 size=   22830KiB time=00:01:36.62 bitrate=1935.5kbits/s speed=0.985x elapsed=0:01:38.04    frame= 2320 fps= 24 q=28.0 size=   22893KiB time=00:01:37.12 bitrate=1930.9kbits/s speed=0.985x elapsed=0:01:38.56    frame= 2333 fps= 24 q=28.0 size=   22990KiB time=00:01:37.66 bitrate=1928.4kbits/s speed=0.986x elapsed=0:01:39.08    frame= 2341 fps= 24 q=28.0 size=   23053KiB time=00:01:38.08 bitrate=1925.4kbits/s speed=0.985x elapsed=0:01:39.60    frame= 2351 fps= 23 q=28.0 size=   23241KiB time=00:01:38.50 bitrate=1932.9kbits/s speed=0.984x elapsed=0:01:40.12    frame= 2362 fps= 23 q=28.0 size=   23352KiB time=00:01:39.00 bitrate=1932.3kbits/s speed=0.984x elapsed=0:01:40.63    frame= 2376 fps= 23 q=28.0 size=   23496KiB time=00:01:39.58 bitrate=1932.8kbits/s speed=0.985x elapsed=0:01:41.14    frame= 2389 fps= 23 q=28.0 size=   23633KiB time=00:01:40.12 bitrate=1933.6kbits/s speed=0.985x elapsed=0:01:41.67    frame= 2401 fps= 23 q=28.0 size=   23740KiB time=00:01:40.62 bitrate=1932.7kbits/s speed=0.985x elapsed=0:01:42.18    frame= 2412 fps= 23 q=28.0 size=   23912KiB time=00:01:41.08 bitrate=1937.8kbits/s speed=0.984x elapsed=0:01:42.69    frame= 2425 fps= 23 q=28.0 size=   24049KiB time=00:01:41.58 bitrate=1939.4kbits/s speed=0.984x elapsed=0:01:43.22    frame= 2439 fps= 24 q=28.0 size=   24173KiB time=00:01:42.20 bitrate=1937.5kbits/s speed=0.985x elapsed=0:01:43.73    frame= 2453 fps= 24 q=28.0 size=   24301KiB time=00:01:42.91 bitrate=1934.3kbits/s speed=0.987x elapsed=0:01:44.24    [vist#0:0/h264 @ 000002b78d301d40] Resumed reading at pts 104.931 with rate 1.050 after a lag of 0.324s
frame= 2462 fps= 24 q=28.0 size=   24437KiB time=00:01:43.12 bitrate=1941.2kbits/s speed=0.984x elapsed=0:01:44.76    [aist#0:1/aac @ 000002b78d2fd000] Resumed reading at pts 104.960 with rate 1.050 after a lag of 0.354s
frame= 2472 fps= 23 q=28.0 size=   24519KiB time=00:01:43.45 bitrate=1941.4kbits/s speed=0.983x elapsed=0:01:45.27    frame= 2486 fps= 23 q=28.0 size=   24610KiB time=00:01:44.04 bitrate=1937.8kbits/s speed=0.983x elapsed=0:01:45.78    frame= 2499 fps= 24 q=28.0 size=   24707KiB time=00:01:44.62 bitrate=1934.6kbits/s speed=0.984x elapsed=0:01:46.30    frame= 2512 fps= 24 q=28.0 size=   24766KiB time=00:01:45.16 bitrate=1929.1kbits/s speed=0.984x elapsed=0:01:46.82    frame= 2521 fps= 23 q=28.0 size=   24828KiB time=00:01:45.66 bitrate=1924.8kbits/s speed=0.984x elapsed=0:01:47.33    frame= 2532 fps= 23 q=28.0 size=   24998KiB time=00:01:46.12 bitrate=1929.6kbits/s speed=0.984x elapsed=0:01:47.85    frame= 2544 fps= 23 q=28.0 size=   25127KiB time=00:01:46.58 bitrate=1931.3kbits/s speed=0.984x elapsed=0:01:48.36    frame= 2556 fps= 23 q=28.0 size=   25264KiB time=00:01:47.12 bitrate=1931.9kbits/s speed=0.984x elapsed=0:01:48.88    frame= 2570 fps= 23 q=28.0 size=   25412KiB time=00:01:47.70 bitrate=1932.8kbits/s speed=0.985x elapsed=0:01:49.39    frame= 2581 fps= 23 q=28.0 size=   25506KiB time=00:01:48.12 bitrate=1932.5kbits/s speed=0.984x elapsed=0:01:49.91    frame= 2592 fps= 23 q=28.0 size=   25678KiB time=00:01:48.58 bitrate=1937.2kbits/s speed=0.983x elapsed=0:01:50.42    frame= 2604 fps= 23 q=28.0 size=   25802KiB time=00:01:49.12 bitrate=1936.9kbits/s speed=0.984x elapsed=0:01:50.95    frame= 2617 fps= 23 q=28.0 size=   25939KiB time=00:01:49.66 bitrate=1937.7kbits/s speed=0.984x elapsed=0:01:51.45    frame= 2632 fps= 24 q=28.0 size=   26067KiB time=00:01:50.29 bitrate=1936.2kbits/s speed=0.985x elapsed=0:01:51.98    frame= 2641 fps= 23 q=28.0 size=   26142KiB time=00:01:50.62 bitrate=1935.9kbits/s speed=0.983x elapsed=0:01:52.49    frame= 2656 fps= 24 q=28.0 size=   26329KiB time=00:01:51.16 bitrate=1940.2kbits/s speed=0.984x elapsed=0:01:53.00    frame= 2674 fps= 24 q=28.0 size=   26462KiB time=00:01:52.00 bitrate=1935.5kbits/s speed=0.987x elapsed=0:01:53.53    frame= 2690 fps= 24 q=28.0 size=   26586KiB time=00:01:52.58 bitrate=1934.5kbits/s speed=0.987x elapsed=0:01:54.04    frame= 2701 fps= 24 q=28.0 size=   26629KiB time=00:01:53.12 bitrate=1928.3kbits/s speed=0.987x elapsed=0:01:54.56    frame= 2712 fps= 24 q=28.0 size=   26784KiB time=00:01:53.58 bitrate=1931.7kbits/s speed=0.987x elapsed=0:01:55.07    frame= 2727 fps= 24 q=28.0 size=   26923KiB time=00:01:54.16 bitrate=1931.8kbits/s speed=0.988x elapsed=0:01:55.58    frame= 2738 fps= 24 q=28.0 size=   27056KiB time=00:01:54.66 bitrate=1932.9kbits/s speed=0.988x elapsed=0:01:56.09    frame= 2751 fps= 24 q=28.0 size=   27192KiB time=00:01:55.20 bitrate=1933.5kbits/s speed=0.988x elapsed=0:01:56.62    frame= 2761 fps= 24 q=28.0 size=   27281KiB time=00:01:55.66 bitrate=1932.1kbits/s speed=0.987x elapsed=0:01:57.13    frame= 2772 fps= 24 q=28.0 size=   27448KiB time=00:01:56.12 bitrate=1936.3kbits/s speed=0.987x elapsed=0:01:57.64    frame= 2784 fps= 24 q=28.0 size=   27568KiB time=00:01:56.62 bitrate=1936.4kbits/s speed=0.987x elapsed=0:01:58.17    frame= 2796 fps= 24 q=28.0 size=   27692KiB time=00:01:57.12 bitrate=1936.9kbits/s speed=0.987x elapsed=0:01:58.68    frame= 2812 fps= 24 q=28.0 size=   27847KiB time=00:01:57.75 bitrate=1937.4kbits/s speed=0.988x elapsed=0:01:59.19    frame= 2821 fps= 24 q=28.0 size=   27932KiB time=00:01:58.20 bitrate=1935.7kbits/s speed=0.987x elapsed=0:01:59.72    frame= 2834 fps= 24 q=28.0 size=   28122KiB time=00:01:58.79 bitrate=1939.3kbits/s speed=0.988x elapsed=0:02:00.23    frame= 2850 fps= 24 q=28.0 size=   28239KiB time=00:01:59.29 bitrate=1939.3kbits/s speed=0.988x elapsed=0:02:00.75    frame= 2862 fps= 24 q=28.0 size=   28335KiB time=00:01:59.79 bitrate=1937.7kbits/s speed=0.988x elapsed=0:02:01.26    frame= 2874 fps= 24 q=28.0 size=   28415KiB time=00:02:00.29 bitrate=1935.1kbits/s speed=0.988x elapsed=0:02:01.77    frame= 2883 fps= 24 q=28.0 size=   28541KiB time=00:02:00.79 bitrate=1935.6kbits/s speed=0.988x elapsed=0:02:02.29    frame= 2899 fps= 24 q=28.0 size=   28622KiB time=00:02:01.37 bitrate=1931.8kbits/s speed=0.988x elapsed=0:02:02.80    frame= 2912 fps= 24 q=28.0 size=   28718KiB time=00:02:01.91 bitrate=1929.6kbits/s speed=0.989x elapsed=0:02:03.32    frame= 2924 fps= 24 q=25.0 size=   28843KiB time=00:02:02.41 bitrate=1930.2kbits/s speed=0.989x elapsed=0:02:03.83    frame= 2936 fps= 24 q=28.0 size=   28976KiB time=00:02:02.91 bitrate=1931.2kbits/s speed=0.988x elapsed=0:02:04.35    frame= 2941 fps= 24 q=28.0 size=   29032KiB time=00:02:03.25 bitrate=1929.7kbits/s speed=0.987x elapsed=0:02:04.86    frame= 2954 fps= 24 q=28.0 size=   29237KiB time=00:02:03.79 bitrate=1934.8kbits/s speed=0.987x elapsed=0:02:05.37    frame= 2968 fps= 24 q=28.0 size=   29360KiB time=00:02:04.37 bitrate=1933.8kbits/s speed=0.988x elapsed=0:02:05.90    frame= 2981 fps= 24 q=25.0 size=   29508KiB time=00:02:04.91 bitrate=1935.1kbits/s speed=0.988x elapsed=0:02:06.41    frame= 2994 fps= 24 q=28.0 size=   29637KiB time=00:02:05.41 bitrate=1935.9kbits/s speed=0.988x elapsed=0:02:06.93    frame= 3002 fps= 24 q=28.0 size=   29765KiB time=00:02:05.70 bitrate=1939.7kbits/s speed=0.986x elapsed=0:02:07.44    frame= 3016 fps= 24 q=28.0 size=   29893KiB time=00:02:06.37 bitrate=1937.7kbits/s speed=0.988x elapsed=0:02:07.95    frame= 3032 fps= 24 q=28.0 size=   30029KiB time=00:02:07.12 bitrate=1935.1kbits/s speed=0.989x elapsed=0:02:08.48    frame= 3047 fps= 24 q=28.0 size=   30150KiB time=00:02:07.54 bitrate=1936.5kbits/s speed=0.989x elapsed=0:02:08.99    frame= 3059 fps= 24 q=28.0 size=   30242KiB time=00:02:08.04 bitrate=1934.9kbits/s speed=0.989x elapsed=0:02:09.51    frame= 3068 fps= 24 q=28.0 size=   30365KiB time=00:02:08.50 bitrate=1935.8kbits/s speed=0.988x elapsed=0:02:10.02    frame= 3084 fps= 24 q=28.0 size=   30467KiB time=00:02:09.12 bitrate=1932.9kbits/s speed=0.989x elapsed=0:02:10.53    frame= 3096 fps= 24 q=28.0 size=   30545KiB time=00:02:09.62 bitrate=1930.4kbits/s speed=0.989x elapsed=0:02:11.05    frame= 3108 fps= 24 q=28.0 size=   30670KiB time=00:02:10.12 bitrate=1930.8kbits/s speed=0.989x elapsed=0:02:11.57    frame= 3121 fps= 24 q=28.0 size=   30789KiB time=00:02:10.66 bitrate=1930.3kbits/s speed=0.989x elapsed=0:02:12.08    frame= 3127 fps= 24 q=28.0 size=   30932KiB time=00:02:11.04 bitrate=1933.7kbits/s speed=0.988x elapsed=0:02:12.61    frame= 3140 fps= 24 q=28.0 size=   31058KiB time=00:02:11.58 bitrate=1933.6kbits/s speed=0.988x elapsed=0:02:13.12    frame= 3152 fps= 24 q=28.0 size=   31172KiB time=00:02:12.08 bitrate=1933.4kbits/s speed=0.988x elapsed=0:02:13.63    frame= 3165 fps= 24 q=28.0 size=   31314KiB time=00:02:12.62 bitrate=1934.2kbits/s speed=0.989x elapsed=0:02:14.14    frame= 3177 fps= 24 q=28.0 size=   31440KiB time=00:02:13.12 bitrate=1934.7kbits/s speed=0.989x elapsed=0:02:14.66    frame= 3185 fps= 24 q=28.0 size=   31571KiB time=00:02:13.45 bitrate=1937.9kbits/s speed=0.987x elapsed=0:02:15.18    frame= 3198 fps= 24 q=28.0 size=   31691KiB time=00:02:13.95 bitrate=1938.0kbits/s speed=0.987x elapsed=0:02:15.70    frame= 3213 fps= 24 q=28.0 size=   31842KiB time=00:02:14.58 bitrate=1938.2kbits/s speed=0.988x elapsed=0:02:16.21    frame= 3231 fps= 24 q=28.0 size=   31984KiB time=00:02:15.29 bitrate=1936.6kbits/s speed=0.989x elapsed=0:02:16.72    frame= 3241 fps= 24 q=28.0 size=   32050KiB time=00:02:15.75 bitrate=1934.1kbits/s speed=0.989x elapsed=0:02:17.23    frame= 3256 fps= 24 q=28.0 size=   32219KiB time=00:02:16.29 bitrate=1936.5kbits/s speed=0.989x elapsed=0:02:17.75    frame= 3268 fps= 24 q=28.0 size=   32315KiB time=00:02:16.83 bitrate=1934.7kbits/s speed=0.99x elapsed=0:02:18.27    frame= 3281 fps= 24 q=28.0 size=   32378KiB time=00:02:17.37 bitrate=1930.8kbits/s speed=0.99x elapsed=0:02:18.79    frame= 3293 fps= 24 q=28.0 size=   32483KiB time=00:02:17.87 bitrate=1930.0kbits/s speed=0.99x elapsed=0:02:19.31    frame= 3301 fps= 24 q=28.0 size=   32538KiB time=00:02:18.33 bitrate=1926.9kbits/s speed=0.989x elapsed=0:02:19.82    frame= 3311 fps= 24 q=28.0 size=   32727KiB time=00:02:18.75 bitrate=1932.2kbits/s speed=0.989x elapsed=0:02:20.33    frame= 3322 fps= 24 q=28.0 size=   32838KiB time=00:02:19.20 bitrate=1932.4kbits/s speed=0.988x elapsed=0:02:20.85    frame= 3336 fps= 24 q=28.0 size=   32982KiB time=00:02:19.79 bitrate=1932.8kbits/s speed=0.989x elapsed=0:02:21.37    frame= 3349 fps= 24 q=28.0 size=   33119KiB time=00:02:20.29 bitrate=1933.9kbits/s speed=0.989x elapsed=0:02:21.88    frame= 3361 fps= 24 q=28.0 size=   33226KiB time=00:02:20.79 bitrate=1933.3kbits/s speed=0.989x elapsed=0:02:22.39    frame= 3369 fps= 24 q=28.0 size=   33379KiB time=00:02:21.16 bitrate=1937.0kbits/s speed=0.988x elapsed=0:02:22.91    frame= 3383 fps= 24 q=28.0 size=   33509KiB time=00:02:21.70 bitrate=1937.1kbits/s speed=0.988x elapsed=0:02:23.42    frame= 3398 fps= 24 q=28.0 size=   33655KiB time=00:02:22.37 bitrate=1936.5kbits/s speed=0.989x elapsed=0:02:23.95    frame= 3412 fps= 24 q=28.0 size=   33770KiB time=00:02:22.95 bitrate=1935.1kbits/s speed=0.99x elapsed=0:02:24.46    [vist#0:0/h264 @ 000002b78d301d40] Resumed reading at pts 144.727 with rate 1.050 after a lag of 0.341s
frame= 3421 fps= 24 q=28.0 size=   33840KiB time=00:02:23.33 bitrate=1934.1kbits/s speed=0.989x elapsed=0:02:24.98    frame= 3434 fps= 24 q=28.0 size=   34007KiB time=00:02:23.75 bitrate=1938.0kbits/s speed=0.988x elapsed=0:02:25.50    frame= 3446 fps= 24 q=28.0 size=   34097KiB time=00:02:24.25 bitrate=1936.4kbits/s speed=0.988x elapsed=0:02:26.01    frame= 3459 fps= 24 q=28.0 size=   34193KiB time=00:02:24.83 bitrate=1934.0kbits/s speed=0.988x elapsed=0:02:26.52    frame= 3472 fps= 24 q=28.0 size=   34251KiB time=00:02:25.37 bitrate=1930.1kbits/s speed=0.989x elapsed=0:02:27.04    frame= 3481 fps= 24 q=28.0 size=   34314KiB time=00:02:25.83 bitrate=1927.5kbits/s speed=0.988x elapsed=0:02:27.55    frame= 3493 fps= 24 q=28.0 size=   34502KiB time=00:02:26.33 bitrate=1931.5kbits/s speed=0.988x elapsed=0:02:28.07    frame= 3504 fps= 24 q=28.0 size=   34612KiB time=00:02:26.79 bitrate=1931.6kbits/s speed=0.988x elapsed=0:02:28.59    frame= 3516 fps= 24 q=28.0 size=   34749KiB time=00:02:27.33 bitrate=1932.1kbits/s speed=0.988x elapsed=0:02:29.10    frame= 3530 fps= 24 q=28.0 size=   34897KiB time=00:02:27.87 bitrate=1933.2kbits/s speed=0.988x elapsed=0:02:29.61    frame= 3541 fps= 24 q=28.0 size=   34992KiB time=00:02:28.37 bitrate=1931.9kbits/s speed=0.988x elapsed=0:02:30.13    frame= 3552 fps= 24 q=28.0 size=   35162KiB time=00:02:28.83 bitrate=1935.4kbits/s speed=0.988x elapsed=0:02:30.65    frame= 3565 fps= 24 q=28.0 size=   35306KiB time=00:02:29.37 bitrate=1936.2kbits/s speed=0.988x elapsed=0:02:31.15    frame= 3580 fps= 24 q=28.0 size=   35442KiB time=00:02:29.95 bitrate=1936.2kbits/s speed=0.989x elapsed=0:02:31.68    frame= 3592 fps= 24 q=28.0 size=   35552KiB time=00:02:30.50 bitrate=1935.2kbits/s speed=0.989x elapsed=0:02:32.19    frame= 3601 fps= 24 q=28.0 size=   35627KiB time=00:02:30.83 bitrate=1935.0kbits/s speed=0.988x elapsed=0:02:32.72    frame= 3617 fps= 24 q=28.0 size=   35829KiB time=00:02:31.45 bitrate=1937.9kbits/s speed=0.988x elapsed=0:02:33.23    frame= 3634 fps= 24 q=28.0 size=   35947KiB time=00:02:32.20 bitrate=1934.7kbits/s speed=0.99x elapsed=0:02:33.76    frame= 3650 fps= 24 q=28.0 size=   36073KiB time=00:02:32.79 bitrate=1934.1kbits/s speed=0.99x elapsed=0:02:34.27    frame= 3661 fps= 24 q=28.0 size=   36114KiB time=00:02:33.37 bitrate=1928.9kbits/s speed=0.991x elapsed=0:02:34.79    frame= 3672 fps= 24 q=28.0 size=   36269KiB time=00:02:33.79 bitrate=1931.9kbits/s speed=0.99x elapsed=0:02:35.30    frame= 3687 fps= 24 q=28.0 size=   36407KiB time=00:02:34.37 bitrate=1932.0kbits/s speed=0.991x elapsed=0:02:35.81    frame= 3700 fps= 24 q=28.0 size=   36552KiB time=00:02:34.91 bitrate=1932.9kbits/s speed=0.991x elapsed=0:02:36.34    frame= 3712 fps= 24 q=28.0 size=   36681KiB time=00:02:35.41 bitrate=1933.5kbits/s speed=0.991x elapsed=0:02:36.85    frame= 3721 fps= 24 q=28.0 size=   36766KiB time=00:02:35.87 bitrate=1932.2kbits/s speed=0.991x elapsed=0:02:37.36    frame= 3732 fps= 24 q=28.0 size=   36932KiB time=00:02:36.41 bitrate=1934.3kbits/s speed=0.991x elapsed=0:02:37.88    frame= 3744 fps= 24 q=28.0 size=   37052KiB time=00:02:36.83 bitrate=1935.4kbits/s speed=0.99x elapsed=0:02:38.40    frame= 3757 fps= 24 q=28.0 size=   37196KiB time=00:02:37.41 bitrate=1935.7kbits/s speed=0.991x elapsed=0:02:38.91    frame= 3772 fps= 24 q=28.0 size=   37332KiB time=00:02:38.00 bitrate=1935.6kbits/s speed=0.991x elapsed=0:02:39.42    frame= 3781 fps= 24 q=28.0 size=   37416KiB time=00:02:38.41 bitrate=1934.8kbits/s speed=0.99x elapsed=0:02:39.94    frame= 3794 fps= 24 q=28.0 size=   37606KiB time=00:02:38.91 bitrate=1938.6kbits/s speed=0.99x elapsed=0:02:40.45    frame= 3810 fps= 24 q=28.0 size=   37724KiB time=00:02:39.50 bitrate=1937.5kbits/s speed=0.991x elapsed=0:02:40.97    frame= 3823 fps= 24 q=24.0 size=   37822KiB time=00:02:40.04 bitrate=1936.0kbits/s speed=0.991x elapsed=0:02:41.49    frame= 3835 fps= 24 q=28.0 size=   37903KiB time=00:02:40.54 bitrate=1934.1kbits/s speed=0.991x elapsed=0:02:42.01    frame= 3843 fps= 24 q=28.0 size=   38029KiB time=00:02:41.08 bitrate=1934.0kbits/s speed=0.991x elapsed=0:02:42.52    frame= 3860 fps= 24 q=28.0 size=   38114KiB time=00:02:41.66 bitrate=1931.3kbits/s speed=0.992x elapsed=0:02:43.03    frame= 3872 fps= 24 q=28.0 size=   38230KiB time=00:02:42.16 bitrate=1931.2kbits/s speed=0.992x elapsed=0:02:43.55    frame= 3884 fps= 24 q=25.0 size=   38333KiB time=00:02:42.66 bitrate=1930.5kbits/s speed=0.991x elapsed=0:02:44.07    frame= 3896 fps= 24 q=28.0 size=   38466KiB time=00:02:43.20 bitrate=1930.7kbits/s speed=0.992x elapsed=0:02:44.58    frame= 3902 fps= 24 q=28.0 size=   38601KiB time=00:02:43.54 bitrate=1933.6kbits/s speed=0.99x elapsed=0:02:45.11    frame= 3916 fps= 24 q=28.0 size=   38736KiB time=00:02:44.16 bitrate=1932.9kbits/s speed=0.991x elapsed=0:02:45.62    frame= 3929 fps= 24 q=28.0 size=   38876KiB time=00:02:44.66 bitrate=1934.0kbits/s speed=0.991x elapsed=0:02:46.12    frame= 3941 fps= 24 q=28.0 size=   38998KiB time=00:02:45.16 bitrate=1934.3kbits/s speed=0.991x elapsed=0:02:46.65    frame= 3956 fps= 24 q=28.0 size=   39136KiB time=00:02:45.75 bitrate=1934.3kbits/s speed=0.992x elapsed=0:02:47.16    frame= 3962 fps= 24 q=28.0 size=   39255KiB time=00:02:46.00 bitrate=1937.2kbits/s speed=0.99x elapsed=0:02:47.67    frame= 3977 fps= 24 q=28.0 size=   39404KiB time=00:02:46.66 bitrate=1936.8kbits/s speed=0.991x elapsed=0:02:48.20    [vist#0:0/h264 @ 000002b78d301d40] Resumed reading at pts 168.855 with rate 1.050 after a lag of 0.312s
frame= 3992 fps= 24 q=28.0 size=   39519KiB time=00:02:47.33 bitrate=1934.7kbits/s speed=0.992x elapsed=0:02:48.71    [aist#0:1/aac @ 000002b78d2fd000] Resumed reading at pts 168.896 with rate 1.050 after a lag of 0.316s
frame= 4000 fps= 24 q=28.0 size=   39598KiB time=00:02:47.50 bitrate=1936.7kbits/s speed=0.99x elapsed=0:02:49.23    frame= 4013 fps= 24 q=28.0 size=   39696KiB time=00:02:48.04 bitrate=1935.2kbits/s speed=0.99x elapsed=0:02:49.74    frame= 4021 fps= 24 q=28.0 size=   39736KiB time=00:02:48.50 bitrate=1931.8kbits/s speed=0.99x elapsed=0:02:50.25    frame= 4039 fps= 24 q=28.0 size=   39931KiB time=00:02:49.16 bitrate=1933.7kbits/s speed=0.991x elapsed=0:02:50.78    frame= 4052 fps= 24 q=28.0 size=   40009KiB time=00:02:49.70 bitrate=1931.3kbits/s speed=0.991x elapsed=0:02:51.29    frame= 4065 fps= 24 q=28.0 size=   40125KiB time=00:02:50.25 bitrate=1930.7kbits/s speed=0.991x elapsed=0:02:51.81    frame= 4077 fps= 24 q=28.0 size=   40250KiB time=00:02:50.79 bitrate=1930.6kbits/s speed=0.991x elapsed=0:02:52.32    frame= 4084 fps= 24 q=28.0 size=   40389KiB time=00:02:51.16 bitrate=1933.0kbits/s speed=0.99x elapsed=0:02:52.83    frame= 4096 fps= 24 q=28.0 size=   40517KiB time=00:02:51.70 bitrate=1933.0kbits/s speed=0.99x elapsed=0:02:53.35    frame= 4109 fps= 24 q=28.0 size=   40645KiB time=00:02:52.20 bitrate=1933.5kbits/s speed=0.99x elapsed=0:02:53.86    frame= 4124 fps= 24 q=28.0 size=   40784KiB time=00:02:52.79 bitrate=1933.6kbits/s speed=0.991x elapsed=0:02:54.38    frame= 4136 fps= 24 q=28.0 size=   40908KiB time=00:02:53.33 bitrate=1933.4kbits/s speed=0.991x elapsed=0:02:54.89    frame= 4142 fps= 24 q=28.0 size=   41032KiB time=00:02:53.54 bitrate=1936.9kbits/s speed=0.989x elapsed=0:02:55.40    frame= 4156 fps= 24 q=28.0 size=   41173KiB time=00:02:54.16 bitrate=1936.6kbits/s speed=0.99x elapsed=0:02:55.93    frame= 4170 fps= 24 q=28.0 size=   41307KiB time=00:02:54.75 bitrate=1936.4kbits/s speed=0.99x elapsed=0:02:56.44    frame= 4185 fps= 24 q=28.0 size=   41437KiB time=00:02:55.41 bitrate=1935.1kbits/s speed=0.991x elapsed=0:02:56.96    frame= 4201 fps= 24 q=28.0 size=   41541KiB time=00:02:55.95 bitrate=1934.0kbits/s speed=0.991x elapsed=0:02:57.47    frame= 4212 fps= 24 q=28.0 size=   41691KiB time=00:02:56.45 bitrate=1935.5kbits/s speed=0.991x elapsed=0:02:58.00    frame= 4229 fps= 24 q=28.0 size=   41806KiB time=00:02:57.12 bitrate=1933.5kbits/s speed=0.992x elapsed=0:02:58.50    frame= 4241 fps= 24 q=28.0 size=   41871KiB time=00:02:57.62 bitrate=1931.1kbits/s speed=0.992x elapsed=0:02:59.02    frame= 4254 fps= 24 q=28.0 size=   41974KiB time=00:02:58.16 bitrate=1929.9kbits/s speed=0.992x elapsed=0:02:59.54    frame= 4261 fps= 24 q=28.0 size=   42029KiB time=00:02:58.54 bitrate=1928.4kbits/s speed=0.992x elapsed=0:03:00.06    frame= 4271 fps= 24 q=28.0 size=   42217KiB time=00:02:58.91 bitrate=1933.0kbits/s speed=0.991x elapsed=0:03:00.57    frame= 4282 fps= 24 q=28.0 size=   42328KiB time=00:02:59.54 bitrate=1931.3kbits/s speed=0.991x elapsed=0:03:01.08    frame= 4297 fps= 24 q=28.0 size=   42495KiB time=00:03:00.00 bitrate=1934.0kbits/s speed=0.991x elapsed=0:03:01.61    frame= 4312 fps= 24 q=28.0 size=   42626KiB time=00:03:00.70 bitrate=1932.4kbits/s speed=0.992x elapsed=0:03:02.12    frame= 4321 fps= 24 q=28.0 size=   42716KiB time=00:03:01.04 bitrate=1932.9kbits/s speed=0.991x elapsed=0:03:02.63    frame= 4332 fps= 24 q=28.0 size=   42887KiB time=00:03:01.54 bitrate=1935.3kbits/s speed=0.991x elapsed=0:03:03.15    [vist#0:0/h264 @ 000002b78d301d40] Resumed reading at pts 183.523 with rate 1.050 after a lag of 0.304s
[aist#0:1/aac @ 000002b78d2fd000] Resumed reading at pts 183.552 with rate 1.050 after a lag of 0.318s
frame= 4345 fps= 24 q=28.0 size=   43025KiB time=00:03:01.95 bitrate=1937.0kbits/s speed=0.991x elapsed=0:03:03.66    frame= 4359 fps= 24 q=28.0 size=   43149KiB time=00:03:02.54 bitrate=1936.4kbits/s speed=0.991x elapsed=0:03:04.18    frame= 4370 fps= 24 q=28.0 size=   43257KiB time=00:03:03.00 bitrate=1936.4kbits/s speed=0.991x elapsed=0:03:04.70    frame= 4381 fps= 24 q=28.0 size=   43330KiB time=00:03:03.58 bitrate=1933.5kbits/s speed=0.991x elapsed=0:03:05.21    frame= 4396 fps= 24 q=28.0 size=   43515KiB time=00:03:04.12 bitrate=1936.1kbits/s speed=0.991x elapsed=0:03:05.72    frame= 4409 fps= 24 q=28.0 size=   43602KiB time=00:03:04.62 bitrate=1934.7kbits/s speed=0.991x elapsed=0:03:06.24    frame= 4423 fps= 24 q=28.0 size=   43691KiB time=00:03:05.25 bitrate=1932.1kbits/s speed=0.992x elapsed=0:03:06.76    frame= 4435 fps= 24 q=28.0 size=   43772KiB time=00:03:05.75 bitrate=1930.4kbits/s speed=0.992x elapsed=0:03:07.27    frame= 4445 fps= 24 q=28.0 size=   43912KiB time=00:03:06.29 bitrate=1931.0kbits/s speed=0.992x elapsed=0:03:07.79    frame= 4457 fps= 24 q=28.0 size=   44038KiB time=00:03:06.79 bitrate=1931.3kbits/s speed=0.992x elapsed=0:03:08.30    frame= 4469 fps= 24 q=28.0 size=   44171KiB time=00:03:07.29 bitrate=1932.0kbits/s speed=0.992x elapsed=0:03:08.82    frame= 4480 fps= 24 q=28.0 size=   44278KiB time=00:03:07.70 bitrate=1932.4kbits/s speed=0.991x elapsed=0:03:09.34    frame= 4494 fps= 24 q=28.0 size=   44424KiB time=00:03:08.29 bitrate=1932.7kbits/s speed=0.992x elapsed=0:03:09.85    [aist#0:1/aac @ 000002b78d2fd000] Resumed reading at pts 190.549 with rate 1.050 after a lag of 0.309s
frame= 4502 fps= 24 q=28.0 size=   44554KiB time=00:03:08.62 bitrate=1935.0kbits/s speed=0.991x elapsed=0:03:10.36    [vist#0:0/h264 @ 000002b78d301d40] Resumed reading at pts 190.566 with rate 1.050 after a lag of 0.313s
frame= 4513 fps= 24 q=28.0 size=   44679KiB time=00:03:09.08 bitrate=1935.7kbits/s speed=0.991x elapsed=0:03:10.89    frame= 4528 fps= 24 q=28.0 size=   44814KiB time=00:03:09.75 bitrate=1934.7kbits/s speed=0.991x elapsed=0:03:11.40    frame= 4540 fps= 24 q=28.0 size=   44932KiB time=00:03:10.20 bitrate=1935.2kbits/s speed=0.991x elapsed=0:03:11.91    frame= 4554 fps= 24 q=28.0 size=   45071KiB time=00:03:10.83 bitrate=1934.8kbits/s speed=0.992x elapsed=0:03:12.43    frame= 4563 fps= 24 q=28.0 size=   45210KiB time=00:03:11.33 bitrate=1935.7kbits/s speed=0.992x elapsed=0:03:12.94    frame= 4581 fps= 24 q=28.0 size=   45352KiB time=00:03:11.87 bitrate=1936.3kbits/s speed=0.992x elapsed=0:03:13.46    frame= 4595 fps= 24 q=28.0 size=   45452KiB time=00:03:12.41 bitrate=1935.1kbits/s speed=0.992x elapsed=0:03:13.97    frame= 4608 fps= 24 q=28.0 size=   45515KiB time=00:03:12.95 bitrate=1932.3kbits/s speed=0.992x elapsed=0:03:14.49    frame= 4621 fps= 24 q=28.0 size=   45604KiB time=00:03:13.54 bitrate=1930.3kbits/s speed=0.992x elapsed=0:03:15.00    frame= 4632 fps= 24 q=28.0 size=   45759KiB time=00:03:14.08 bitrate=1931.4kbits/s speed=0.993x elapsed=0:03:15.52    frame= 4646 fps= 24 q=28.0 size=   45893KiB time=00:03:14.62 bitrate=1931.7kbits/s speed=0.993x elapsed=0:03:16.03    frame= 4657 fps= 24 q=28.0 size=   46020KiB time=00:03:15.16 bitrate=1931.7kbits/s speed=0.993x elapsed=0:03:16.55    frame= 4669 fps= 24 q=28.0 size=   46153KiB time=00:03:15.66 bitrate=1932.3kbits/s speed=0.993x elapsed=0:03:17.08    frame= 4681 fps= 24 q=28.0 size=   46256KiB time=00:03:16.16 bitrate=1931.7kbits/s speed=0.993x elapsed=0:03:17.59    frame= 4691 fps= 24 q=28.0 size=   46418KiB time=00:03:16.62 bitrate=1933.9kbits/s speed=0.993x elapsed=0:03:18.10    frame= 4704 fps= 24 q=28.0 size=   46542KiB time=00:03:17.12 bitrate=1934.2kbits/s speed=0.992x elapsed=0:03:18.61    frame= 4716 fps= 24 q=28.0 size=   46667KiB time=00:03:17.58 bitrate=1934.9kbits/s speed=0.992x elapsed=0:03:19.13    frame= 4729 fps= 24 q=28.0 size=   46804KiB time=00:03:18.16 bitrate=1934.8kbits/s speed=0.993x elapsed=0:03:19.64    frame= 4741 fps= 24 q=28.0 size=   46906KiB time=00:03:18.62 bitrate=1934.6kbits/s speed=0.992x elapsed=0:03:20.17    frame= 4750 fps= 24 q=28.0 size=   47059KiB time=00:03:19.04 bitrate=1936.8kbits/s speed=0.992x elapsed=0:03:20.68    [vist#0:0/h264 @ 000002b78d301d40] Resumed reading at pts 201.026 with rate 1.050 after a lag of 0.358s
frame= 4767 fps= 24 q=28.0 size=   47193KiB time=00:03:19.66 bitrate=1936.2kbits/s speed=0.992x elapsed=0:03:21.19    frame= 4775 fps= 24 q=28.0 size=   47255KiB time=00:03:19.95 bitrate=1936.0kbits/s speed=0.991x elapsed=0:03:21.72    frame= 4788 fps= 24 q=28.0 size=   47356KiB time=00:03:20.50 bitrate=1934.9kbits/s speed=0.991x elapsed=0:03:22.23    frame= 4801 fps= 24 q=28.0 size=   47412KiB time=00:03:21.04 bitrate=1931.9kbits/s speed=0.992x elapsed=0:03:22.74    frame= 4814 fps= 24 q=28.0 size=   47567KiB time=00:03:21.62 bitrate=1932.6kbits/s speed=0.992x elapsed=0:03:23.25    frame= 4827 fps= 24 q=28.0 size=   47655KiB time=00:03:22.16 bitrate=1931.0kbits/s speed=0.992x elapsed=0:03:23.77    frame= 4840 fps= 24 q=28.0 size=   47769KiB time=00:03:22.70 bitrate=1930.5kbits/s speed=0.992x elapsed=0:03:24.28    frame= 4852 fps= 24 q=28.0 size=   47908KiB time=00:03:23.25 bitrate=1930.9kbits/s speed=0.992x elapsed=0:03:24.80    frame= 4861 fps= 24 q=28.0 size=   48007KiB time=00:03:23.66 bitrate=1931.0kbits/s speed=0.992x elapsed=0:03:25.31    frame= 4870 fps= 24 q=28.0 size=   48173KiB time=00:03:24.12 bitrate=1933.3kbits/s speed=0.992x elapsed=0:03:25.84    frame= 4885 fps= 24 q=28.0 size=   48318KiB time=00:03:24.66 bitrate=1934.0kbits/s speed=0.992x elapsed=0:03:26.35    frame= 4897 fps= 24 q=28.0 size=   48444KiB time=00:03:25.25 bitrate=1933.5kbits/s speed=0.992x elapsed=0:03:26.86    frame= 4911 fps= 24 q=28.0 size=   48575KiB time=00:03:25.75 bitrate=1934.0kbits/s speed=0.992x elapsed=0:03:27.38    frame= 4921 fps= 24 q=28.0 size=   48666KiB time=00:03:26.20 bitrate=1933.4kbits/s speed=0.992x elapsed=0:03:27.89    frame= 4932 fps= 24 q=28.0 size=   48836KiB time=00:03:26.62 bitrate=1936.2kbits/s speed=0.991x elapsed=0:03:28.42    frame= 4946 fps= 24 q=28.0 size=   48967KiB time=00:03:27.25 bitrate=1935.5kbits/s speed=0.992x elapsed=0:03:28.93    frame= 4962 fps= 24 q=28.0 size=   49086KiB time=00:03:27.91 bitrate=1934.0kbits/s speed=0.993x elapsed=0:03:29.44    frame= 4980 fps= 24 q=28.0 size=   49221KiB time=00:03:28.54 bitrate=1933.5kbits/s speed=0.993x elapsed=0:03:29.96    frame= 4988 fps= 24 q=28.0 size=   49340KiB time=00:03:28.95 bitrate=1934.3kbits/s speed=0.993x elapsed=0:03:30.48    frame= 5005 fps= 24 q=28.0 size=   49451KiB time=00:03:29.62 bitrate=1932.5kbits/s speed=0.993x elapsed=0:03:31.00    frame= 5017 fps= 24 q=28.0 size=   49546KiB time=00:03:30.12 bitrate=1931.6kbits/s speed=0.993x elapsed=0:03:31.53    frame= 5029 fps= 24 q=28.0 size=   49654KiB time=00:03:30.62 bitrate=1931.2kbits/s speed=0.993x elapsed=0:03:32.04    frame= 5041 fps= 24 q=28.0 size=   49765KiB time=00:03:31.16 bitrate=1930.6kbits/s speed=0.993x elapsed=0:03:32.55    frame= 5047 fps= 24 q=28.0 size=   49907KiB time=00:03:31.50 bitrate=1933.1kbits/s speed=0.993x elapsed=0:03:33.07    frame= 5060 fps= 24 q=28.0 size=   50034KiB time=00:03:32.04 bitrate=1933.0kbits/s speed=0.993x elapsed=0:03:33.58    frame= 5076 fps= 24 q=28.0 size=   50188KiB time=00:03:32.66 bitrate=1933.3kbits/s speed=0.993x elapsed=0:03:34.11    frame= 5088 fps= 24 q=28.0 size=   50309KiB time=00:03:33.20 bitrate=1933.0kbits/s speed=0.993x elapsed=0:03:34.62    frame= 5101 fps= 24 q=28.0 size=   50441KiB time=00:03:33.70 bitrate=1933.5kbits/s speed=0.993x elapsed=0:03:35.13    frame= 5107 fps= 24 q=28.0 size=   50575KiB time=00:03:34.04 bitrate=1935.6kbits/s speed=0.993x elapsed=0:03:35.64    frame= 5121 fps= 24 q=28.0 size=   50701KiB time=00:03:34.58 bitrate=1935.6kbits/s speed=0.993x elapsed=0:03:36.16    frame= 5136 fps= 24 q=28.0 size=   50832KiB time=00:03:35.16 bitrate=1935.3kbits/s speed=0.993x elapsed=0:03:36.68    frame= 5152 fps= 24 q=28.0 size=   50962KiB time=00:03:35.75 bitrate=1935.0kbits/s speed=0.993x elapsed=0:03:37.19    frame= 5161 fps= 24 q=28.0 size=   51026KiB time=00:03:36.25 bitrate=1933.0kbits/s speed=0.993x elapsed=0:03:37.70    frame= 5177 fps= 24 q=28.0 size=   51207KiB time=00:03:36.79 bitrate=1935.0kbits/s speed=0.993x elapsed=0:03:38.23    frame= 5189 fps= 24 q=28.0 size=   51292KiB time=00:03:37.33 bitrate=1933.4kbits/s speed=0.994x elapsed=0:03:38.74    frame= 5202 fps= 24 q=28.0 size=   51356KiB time=00:03:37.87 bitrate=1931.0kbits/s speed=0.994x elapsed=0:03:39.26    frame= 5214 fps= 24 q=28.0 size=   51463KiB time=00:03:38.37 bitrate=1930.5kbits/s speed=0.994x elapsed=0:03:39.77    frame= 5221 fps= 24 q=28.0 size=   51514KiB time=00:03:38.75 bitrate=1929.2kbits/s speed=0.993x elapsed=0:03:40.28    frame= 5233 fps= 24 q=28.0 size=   51718KiB time=00:03:39.25 bitrate=1932.4kbits/s speed=0.993x elapsed=0:03:40.80    frame= 5246 fps= 24 q=28.0 size=   51857KiB time=00:03:39.83 bitrate=1932.4kbits/s speed=0.993x elapsed=0:03:41.31    frame= 5260 fps= 24 q=28.0 size=   51997KiB time=00:03:40.37 bitrate=1932.9kbits/s speed=0.993x elapsed=0:03:41.84    frame= 5272 fps= 24 q=28.0 size=   52112KiB time=00:03:40.91 bitrate=1932.4kbits/s speed=0.994x elapsed=0:03:42.35    frame= 5281 fps= 24 q=28.0 size=   52201KiB time=00:03:41.20 bitrate=1933.2kbits/s speed=0.993x elapsed=0:03:42.87    frame= 5292 fps= 24 q=28.0 size=   52373KiB time=00:03:41.75 bitrate=1934.8kbits/s speed=0.993x elapsed=0:03:43.38    frame= 5305 fps= 24 q=28.0 size=   52510KiB time=00:03:42.25 bitrate=1935.5kbits/s speed=0.993x elapsed=0:03:43.89    frame= 5320 fps= 24 q=25.0 size=   52638KiB time=00:03:42.91 bitrate=1934.4kbits/s speed=0.993x elapsed=0:03:44.41    frame= 5334 fps= 24 q=28.0 size=   52769KiB time=00:03:43.62 bitrate=1933.1kbits/s speed=0.994x elapsed=0:03:44.93    [vist#0:0/h264 @ 000002b78d301d40] Resumed reading at pts 225.571 with rate 1.050 after a lag of 0.355s
frame= 5342 fps= 24 q=28.0 size=   52899KiB time=00:03:43.79 bitrate=1936.4kbits/s speed=0.993x elapsed=0:03:45.45    frame= 5353 fps= 24 q=28.0 size=   52982KiB time=00:03:44.16 bitrate=1936.2kbits/s speed=0.992x elapsed=0:03:45.96    frame= 5366 fps= 24 q=28.0 size=   53073KiB time=00:03:44.70 bitrate=1934.8kbits/s speed=0.992x elapsed=0:03:46.47    frame= 5380 fps= 24 q=28.0 size=   53168KiB time=00:03:45.33 bitrate=1932.9kbits/s speed=0.993x elapsed=0:03:46.99    frame= 5392 fps= 24 q=28.0 size=   53237KiB time=00:03:45.83 bitrate=1931.2kbits/s speed=0.993x elapsed=0:03:47.50    frame= 5401 fps= 24 q=28.0 size=   53289KiB time=00:03:46.33 bitrate=1928.8kbits/s speed=0.993x elapsed=0:03:48.03    frame= 5413 fps= 24 q=28.0 size=   53477KiB time=00:03:46.83 bitrate=1931.3kbits/s speed=0.993x elapsed=0:03:48.53    frame= 5424 fps= 24 q=28.0 size=   53588KiB time=00:03:47.29 bitrate=1931.4kbits/s speed=0.992x elapsed=0:03:49.06    frame= 5436 fps= 24 q=28.0 size=   53724KiB time=00:03:47.87 bitrate=1931.4kbits/s speed=0.993x elapsed=0:03:49.57    frame= 5449 fps= 24 q=28.0 size=   53865KiB time=00:03:48.29 bitrate=1932.9kbits/s speed=0.992x elapsed=0:03:50.08    frame= 5461 fps= 24 q=28.0 size=   53967KiB time=00:03:48.79 bitrate=1932.3kbits/s speed=0.992x elapsed=0:03:50.59    frame= 5472 fps= 24 q=28.0 size=   54138KiB time=00:03:49.25 bitrate=1934.6kbits/s speed=0.992x elapsed=0:03:51.12    frame= 5484 fps= 24 q=28.0 size=   54263KiB time=00:03:49.79 bitrate=1934.4kbits/s speed=0.992x elapsed=0:03:51.62    frame= 5500 fps= 24 q=28.0 size=   54418KiB time=00:03:50.41 bitrate=1934.7kbits/s speed=0.992x elapsed=0:03:52.15    frame= 5513 fps= 24 q=28.0 size=   54549KiB time=00:03:50.95 bitrate=1934.8kbits/s speed=0.993x elapsed=0:03:52.67    frame= 5521 fps= 24 q=28.0 size=   54603KiB time=00:03:51.33 bitrate=1933.6kbits/s speed=0.992x elapsed=0:03:53.18    frame= 5536 fps= 24 q=28.0 size=   54789KiB time=00:03:51.83 bitrate=1936.0kbits/s speed=0.992x elapsed=0:03:53.69    frame= 5555 fps= 24 q=28.0 size=   54936KiB time=00:03:52.66 bitrate=1934.2kbits/s speed=0.993x elapsed=0:03:54.21    frame= 5571 fps= 24 q=28.0 size=   55049KiB time=00:03:53.33 bitrate=1932.7kbits/s speed=0.994x elapsed=0:03:54.72    frame= 5581 fps= 24 q=28.0 size=   55090KiB time=00:03:53.83 bitrate=1930.0kbits/s speed=0.994x elapsed=0:03:55.25    frame= 5595 fps= 24 q=28.0 size=   55274KiB time=00:03:54.37 bitrate=1932.0kbits/s speed=0.994x elapsed=0:03:55.76    frame= 5608 fps= 24 q=28.0 size=   55388KiB time=00:03:54.87 bitrate=1931.8kbits/s speed=0.994x elapsed=0:03:56.27    frame= 5620 fps= 24 q=28.0 size=   55528KiB time=00:03:55.37 bitrate=1932.6kbits/s speed=0.994x elapsed=0:03:56.79    frame= 5631 fps= 24 q=28.0 size=   55653KiB time=00:03:55.91 bitrate=1932.5kbits/s speed=0.994x elapsed=0:03:57.30    frame= 5641 fps= 24 q=28.0 size=   55742KiB time=00:03:56.37 bitrate=1931.8kbits/s speed=0.994x elapsed=0:03:57.83    frame= 5652 fps= 24 q=28.0 size=   55909KiB time=00:03:56.87 bitrate=1933.5kbits/s speed=0.994x elapsed=0:03:58.33    frame= 5665 fps= 24 q=28.0 size=   56055KiB time=00:03:57.33 bitrate=1934.8kbits/s speed=0.994x elapsed=0:03:58.85    frame= 5680 fps= 24 q=28.0 size=   56190KiB time=00:03:57.95 bitrate=1934.4kbits/s speed=0.994x elapsed=0:03:59.36    frame= 5693 fps= 24 q=28.0 size=   56325KiB time=00:03:58.50 bitrate=1934.6kbits/s speed=0.994x elapsed=0:03:59.88    frame= 5701 fps= 24 q=28.0 size=   56392KiB time=00:03:58.87 bitrate=1933.9kbits/s speed=0.994x elapsed=0:04:00.40    frame= 5716 fps= 24 q=28.0 size=   56590KiB time=00:03:59.58 bitrate=1935.0kbits/s speed=0.994x elapsed=0:04:00.92    frame= 5731 fps= 24 q=28.0 size=   56716KiB time=00:04:00.00 bitrate=1935.9kbits/s speed=0.994x elapsed=0:04:01.43    frame= 5743 fps= 24 q=26.0 size=   56800KiB time=00:04:00.50 bitrate=1934.7kbits/s speed=0.994x elapsed=0:04:01.94    frame= 5755 fps= 24 q=28.0 size=   56877KiB time=00:04:01.00 bitrate=1933.4kbits/s speed=0.994x elapsed=0:04:02.46    frame= 5768 fps= 24 q=28.0 size=   57011KiB time=00:04:01.58 bitrate=1933.2kbits/s speed=0.994x elapsed=0:04:02.98    frame= 5780 fps= 24 q=28.0 size=   57099KiB time=00:04:02.08 bitrate=1932.2kbits/s speed=0.994x elapsed=0:04:03.50    frame= 5793 fps= 24 q=28.0 size=   57201KiB time=00:04:02.62 bitrate=1931.3kbits/s speed=0.994x elapsed=0:04:04.01    frame= 5804 fps= 24 q=28.0 size=   57304KiB time=00:04:03.12 bitrate=1930.8kbits/s speed=0.994x elapsed=0:04:04.52    frame= 5816 fps= 24 q=28.0 size=   57437KiB time=00:04:03.62 bitrate=1931.3kbits/s speed=0.994x elapsed=0:04:05.04    frame= 5823 fps= 24 q=28.0 size=   57591KiB time=00:04:04.04 bitrate=1933.2kbits/s speed=0.994x elapsed=0:04:05.55    frame= 5836 fps= 24 q=28.0 size=   57707KiB time=00:04:04.54 bitrate=1933.1kbits/s speed=0.994x elapsed=0:04:06.08    frame= 5849 fps= 24 q=28.0 size=   57846KiB time=00:04:05.04 bitrate=1933.9kbits/s speed=0.994x elapsed=0:04:06.59    frame= 5864 fps= 24 q=28.0 size=   57987KiB time=00:04:05.70 bitrate=1933.3kbits/s speed=0.994x elapsed=0:04:07.12    frame= 5876 fps= 24 q=28.0 size=   58108KiB time=00:04:06.16 bitrate=1933.7kbits/s speed=0.994x elapsed=0:04:07.64    frame= 5884 fps= 24 q=28.0 size=   58251KiB time=00:04:06.54 bitrate=1935.5kbits/s speed=0.993x elapsed=0:04:08.15    frame= 5898 fps= 24 q=28.0 size=   58383KiB time=00:04:07.08 bitrate=1935.7kbits/s speed=0.994x elapsed=0:04:08.66    frame= 5913 fps= 24 q=28.0 size=   58513KiB time=00:04:07.87 bitrate=1933.8kbits/s speed=0.995x elapsed=0:04:09.18    frame= 5928 fps= 24 q=28.0 size=   58627KiB time=00:04:08.25 bitrate=1934.6kbits/s speed=0.994x elapsed=0:04:09.70    frame= 5941 fps= 24 q=28.0 size=   58707KiB time=00:04:08.79 bitrate=1933.1kbits/s speed=0.994x elapsed=0:04:10.21    frame= 5952 fps= 24 q=28.0 size=   58843KiB time=00:04:09.29 bitrate=1933.6kbits/s speed=0.994x elapsed=0:04:10.73    frame= 5965 fps= 24 q=28.0 size=   58939KiB time=00:04:09.83 bitrate=1932.6kbits/s speed=0.994x elapsed=0:04:11.24    frame= 5978 fps= 24 q=28.0 size=   59033KiB time=00:04:10.37 bitrate=1931.5kbits/s speed=0.995x elapsed=0:04:11.75    frame= 5990 fps= 24 q=28.0 size=   59145KiB time=00:04:10.87 bitrate=1931.3kbits/s speed=0.994x elapsed=0:04:12.28    frame= 6001 fps= 24 q=28.0 size=   59251KiB time=00:04:11.37 bitrate=1930.9kbits/s speed=0.994x elapsed=0:04:12.79    frame= 6008 fps= 24 q=28.0 size=   59403KiB time=00:04:11.79 bitrate=1932.7kbits/s speed=0.994x elapsed=0:04:13.30    frame= 6020 fps= 24 q=28.0 size=   59520KiB time=00:04:12.29 bitrate=1932.6kbits/s speed=0.994x elapsed=0:04:13.82    frame= 6036 fps= 24 q=28.0 size=   59675KiB time=00:04:12.91 bitrate=1932.9kbits/s speed=0.994x elapsed=0:04:14.33    frame= 6048 fps= 24 q=28.0 size=   59795KiB time=00:04:13.41 bitrate=1933.0kbits/s speed=0.994x elapsed=0:04:14.85    frame= 6061 fps= 24 q=28.0 size=   59928KiB time=00:04:13.91 bitrate=1933.4kbits/s speed=0.994x elapsed=0:04:15.36    frame= 6067 fps= 24 q=28.0 size=   60061KiB time=00:04:14.29 bitrate=1934.9kbits/s speed=0.994x elapsed=0:04:15.88    frame= 6082 fps= 24 q=28.0 size=   60192KiB time=00:04:14.83 bitrate=1935.0kbits/s speed=0.994x elapsed=0:04:16.40    frame= 6096 fps= 24 q=28.0 size=   60318KiB time=00:04:15.37 bitrate=1934.9kbits/s speed=0.994x elapsed=0:04:16.91    [vist#0:0/h264 @ 000002b78d301d40] Resumed reading at pts 257.325 with rate 1.050 after a lag of 0.303s
[aist#0:1/aac @ 000002b78d2fd000] Resumed reading at pts 257.365 with rate 1.050 after a lag of 0.311s
frame= 6112 fps= 24 q=28.0 size=   60449KiB time=00:04:15.95 bitrate=1934.7kbits/s speed=0.994x elapsed=0:04:17.42    frame= 6119 fps= 24 q=28.0 size=   60506KiB time=00:04:16.25 bitrate=1934.3kbits/s speed=0.993x elapsed=0:04:17.95    frame= 6128 fps= 24 q=28.0 size=   60632KiB time=00:04:16.70 bitrate=1934.9kbits/s speed=0.993x elapsed=0:04:18.46    frame= 6145 fps= 24 q=28.0 size=   60764KiB time=00:04:17.33 bitrate=1934.4kbits/s speed=0.994x elapsed=0:04:18.97    frame= 6157 fps= 24 q=28.0 size=   60817KiB time=00:04:17.87 bitrate=1932.0kbits/s speed=0.994x elapsed=0:04:19.48    frame= 6171 fps= 24 q=28.0 size=   60915KiB time=00:04:18.45 bitrate=1930.7kbits/s speed=0.994x elapsed=0:04:20.01    frame= 6181 fps= 24 q=28.0 size=   61000KiB time=00:04:19.00 bitrate=1929.4kbits/s speed=0.994x elapsed=0:04:20.52    frame= 6190 fps= 24 q=28.0 size=   61164KiB time=00:04:19.37 bitrate=1931.8kbits/s speed=0.994x elapsed=0:04:21.04    frame= 6202 fps= 24 q=28.0 size=   61299KiB time=00:04:19.87 bitrate=1932.3kbits/s speed=0.994x elapsed=0:04:21.55    frame= 6214 fps= 24 q=28.0 size=   61434KiB time=00:04:20.33 bitrate=1933.2kbits/s speed=0.993x elapsed=0:04:22.06    frame= 6228 fps= 24 q=28.0 size=   61560KiB time=00:04:20.87 bitrate=1933.1kbits/s speed=0.993x elapsed=0:04:22.58    frame= 6241 fps= 24 q=28.0 size=   61687KiB time=00:04:21.45 bitrate=1932.8kbits/s speed=0.994x elapsed=0:04:23.09    frame= 6248 fps= 24 q=28.0 size=   61818KiB time=00:04:21.79 bitrate=1934.4kbits/s speed=0.993x elapsed=0:04:23.62    frame= 6261 fps= 24 q=28.0 size=   61957KiB time=00:04:22.29 bitrate=1935.1kbits/s speed=0.993x elapsed=0:04:24.14    frame= 6276 fps= 24 q=28.0 size=   62092KiB time=00:04:22.95 bitrate=1934.4kbits/s speed=0.994x elapsed=0:04:24.65    frame= 6289 fps= 24 q=28.0 size=   62217KiB time=00:04:23.45 bitrate=1934.6kbits/s speed=0.994x elapsed=0:04:25.16    frame= 6301 fps= 24 q=28.0 size=   62301KiB time=00:04:24.00 bitrate=1933.2kbits/s speed=0.994x elapsed=0:04:25.68    frame= 6316 fps= 24 q=28.0 size=   62487KiB time=00:04:24.62 bitrate=1934.4kbits/s speed=0.994x elapsed=0:04:26.19    frame= 6335 fps= 24 q=28.0 size=   62602KiB time=00:04:25.29 bitrate=1933.1kbits/s speed=0.995x elapsed=0:04:26.72    frame= 6347 fps= 24 q=28.0 size=   62689KiB time=00:04:25.83 bitrate=1931.8kbits/s speed=0.995x elapsed=0:04:27.22    frame= 6359 fps= 24 q=28.0 size=   62769KiB time=00:04:26.33 bitrate=1930.7kbits/s speed=0.995x elapsed=0:04:27.75    frame= 6366 fps= 24 q=28.0 size=   62887KiB time=00:04:26.75 bitrate=1931.3kbits/s speed=0.994x elapsed=0:04:28.26    frame= 6379 fps= 24 q=28.0 size=   63024KiB time=00:04:27.20 bitrate=1932.2kbits/s speed=0.994x elapsed=0:04:28.77    frame= 6389 fps= 24 q=28.0 size=   63142KiB time=00:04:27.70 bitrate=1932.2kbits/s speed=0.994x elapsed=0:04:29.28    frame= 6401 fps= 24 q=25.0 size=   63273KiB time=00:04:28.16 bitrate=1932.9kbits/s speed=0.994x elapsed=0:04:29.80    frame= 6418 fps= 24 q=28.0 size=   63435KiB time=00:04:28.87 bitrate=1932.7kbits/s speed=0.995x elapsed=0:04:30.33    frame= 6426 fps= 24 q=28.0 size=   63562KiB time=00:04:29.29 bitrate=1933.6kbits/s speed=0.994x elapsed=0:04:30.84    [vist#0:0/h264 @ 000002b78d301d40] Resumed reading at pts 271.492 with rate 1.050 after a lag of 0.306s
[aist#0:1/aac @ 000002b78d2fd000] Resumed reading at pts 271.531 with rate 1.050 after a lag of 0.322s
frame= 6439 fps= 24 q=28.0 size=   63707KiB time=00:04:29.66 bitrate=1935.3kbits/s speed=0.994x elapsed=0:04:31.36    frame= 6452 fps= 24 q=28.0 size=   63828KiB time=00:04:30.20 bitrate=1935.1kbits/s speed=0.994x elapsed=0:04:31.88    frame= 6465 fps= 24 q=28.0 size=   63965KiB time=00:04:30.75 bitrate=1935.4kbits/s speed=0.994x elapsed=0:04:32.40    frame= 6478 fps= 24 q=28.0 size=   64076KiB time=00:04:31.29 bitrate=1934.9kbits/s speed=0.994x elapsed=0:04:32.91    frame= 6485 fps= 24 q=28.0 size=   64200KiB time=00:04:31.83 bitrate=1934.7kbits/s speed=0.994x elapsed=0:04:33.42    frame= 6503 fps= 24 q=28.0 size=   64332KiB time=00:04:32.33 bitrate=1935.1kbits/s speed=0.994x elapsed=0:04:33.95    frame= 6516 fps= 24 q=28.0 size=   64424KiB time=00:04:32.87 bitrate=1934.1kbits/s speed=0.994x elapsed=0:04:34.46    frame= 6529 fps= 24 q=28.0 size=   64530KiB time=00:04:33.41 bitrate=1933.4kbits/s speed=0.994x elapsed=0:04:34.97    frame= 6541 fps= 24 q=28.0 size=   64576KiB time=00:04:34.00 bitrate=1930.7kbits/s speed=0.995x elapsed=0:04:35.49    frame= 6552 fps= 24 q=28.0 size=   64731KiB time=00:04:34.50 bitrate=1931.8kbits/s speed=0.995x elapsed=0:04:36.00    frame= 6567 fps= 24 q=28.0 size=   64869KiB time=00:04:35.08 bitrate=1931.8kbits/s speed=0.995x elapsed=0:04:36.53    frame= 6577 fps= 24 q=28.0 size=   64992KiB time=00:04:35.50 bitrate=1932.6kbits/s speed=0.994x elapsed=0:04:37.04    frame= 6589 fps= 24 q=28.0 size=   65125KiB time=00:04:36.08 bitrate=1932.4kbits/s speed=0.995x elapsed=0:04:37.55    frame= 6601 fps= 24 q=28.0 size=   65228KiB time=00:04:36.58 bitrate=1932.0kbits/s speed=0.995x elapsed=0:04:38.08    frame= 6611 fps= 24 q=28.0 size=   65390KiB time=00:04:37.04 bitrate=1933.6kbits/s speed=0.994x elapsed=0:04:38.59    frame= 6624 fps= 24 q=28.0 size=   65514KiB time=00:04:37.50 bitrate=1934.0kbits/s speed=0.994x elapsed=0:04:39.10    frame= 6636 fps= 24 q=28.0 size=   65639KiB time=00:04:38.00 bitrate=1934.2kbits/s speed=0.994x elapsed=0:04:39.61    frame= 6648 fps= 24 q=28.0 size=   65755KiB time=00:04:38.54 bitrate=1933.9kbits/s speed=0.994x elapsed=0:04:40.13    frame= 6661 fps= 24 q=28.0 size=   65878KiB time=00:04:39.04 bitrate=1934.0kbits/s speed=0.994x elapsed=0:04:40.64    frame= 6672 fps= 24 q=28.0 size=   66038KiB time=00:04:39.50 bitrate=1935.5kbits/s speed=0.994x elapsed=0:04:41.17    [vist#0:0/h264 @ 000002b78d301d40] Resumed reading at pts 281.453 with rate 1.050 after a lag of 0.411s
frame= 6688 fps= 24 q=28.0 size=   66184KiB time=00:04:40.08 bitrate=1935.8kbits/s speed=0.994x elapsed=0:04:41.68    frame= 6695 fps= 24 q=28.0 size=   66227KiB time=00:04:40.37 bitrate=1935.0kbits/s speed=0.994x elapsed=0:04:42.19    frame= 6708 fps= 24 q=28.0 size=   66328KiB time=00:04:40.91 bitrate=1934.2kbits/s speed=0.994x elapsed=0:04:42.71    frame= 6721 fps= 24 q=28.0 size=   66383KiB time=00:04:41.45 bitrate=1932.1kbits/s speed=0.994x elapsed=0:04:43.22    frame= 6734 fps= 24 q=28.0 size=   66539KiB time=00:04:42.04 bitrate=1932.6kbits/s speed=0.994x elapsed=0:04:43.74    frame= 6747 fps= 24 q=28.0 size=   66627KiB time=00:04:42.58 bitrate=1931.5kbits/s speed=0.994x elapsed=0:04:44.26    frame= 6760 fps= 24 q=28.0 size=   66741KiB time=00:04:43.12 bitrate=1931.1kbits/s speed=0.994x elapsed=0:04:44.78    frame= 6772 fps= 24 q=28.0 size=   66879KiB time=00:04:43.66 bitrate=1931.4kbits/s speed=0.994x elapsed=0:04:45.29    frame= 6781 fps= 24 q=28.0 size=   66979KiB time=00:04:44.12 bitrate=1931.2kbits/s speed=0.994x elapsed=0:04:45.81    frame= 6792 fps= 24 q=28.0 size=   67153KiB time=00:04:44.58 bitrate=1933.0kbits/s speed=0.994x elapsed=0:04:46.32    frame= 6805 fps= 24 q=28.0 size=   67290KiB time=00:04:45.12 bitrate=1933.3kbits/s speed=0.994x elapsed=0:04:46.83    frame= 6817 fps= 24 q=28.0 size=   67416KiB time=00:04:45.62 bitrate=1933.6kbits/s speed=0.994x elapsed=0:04:47.35    frame= 6832 fps= 24 q=28.0 size=   67550KiB time=00:04:46.20 bitrate=1933.5kbits/s speed=0.994x elapsed=0:04:47.87    frame= 6841 fps= 24 q=28.0 size=   67637KiB time=00:04:46.62 bitrate=1933.1kbits/s speed=0.994x elapsed=0:04:48.39    frame= 6852 fps= 24 q=28.0 size=   67807KiB time=00:04:47.08 bitrate=1934.9kbits/s speed=0.994x elapsed=0:04:48.90    frame= 6868 fps= 24 q=28.0 size=   67946KiB time=00:04:47.75 bitrate=1934.4kbits/s speed=0.994x elapsed=0:04:49.42    frame= 6886 fps= 24 q=28.0 size=   68094KiB time=00:04:48.50 bitrate=1933.5kbits/s speed=0.995x elapsed=0:04:49.94    frame= 6901 fps= 24 q=28.0 size=   68192KiB time=00:04:49.00 bitrate=1933.0kbits/s speed=0.995x elapsed=0:04:50.46    frame= 6912 fps= 24 q=28.0 size=   68328KiB time=00:04:49.54 bitrate=1933.2kbits/s speed=0.995x elapsed=0:04:50.98    frame= 6926 fps= 24 q=28.0 size=   68425KiB time=00:04:50.08 bitrate=1932.3kbits/s speed=0.995x elapsed=0:04:51.49    frame= 6938 fps= 24 q=28.0 size=   68518KiB time=00:04:50.58 bitrate=1931.6kbits/s speed=0.995x elapsed=0:04:52.00    frame= 6951 fps= 24 q=28.0 size=   68630KiB time=00:04:51.12 bitrate=1931.2kbits/s speed=0.995x elapsed=0:04:52.53    frame= 6961 fps= 24 q=28.0 size=   68737KiB time=00:04:51.62 bitrate=1930.9kbits/s speed=0.995x elapsed=0:04:53.04    frame= 6970 fps= 24 q=28.0 size=   68899KiB time=00:04:52.12 bitrate=1932.1kbits/s speed=0.995x elapsed=0:04:53.55    frame= 6984 fps= 24 q=28.0 size=   69043KiB time=00:04:52.62 bitrate=1932.8kbits/s speed=0.995x elapsed=0:04:54.07    frame= 6996 fps= 24 q=28.0 size=   69160KiB time=00:04:53.04 bitrate=1933.4kbits/s speed=0.995x elapsed=0:04:54.58    frame= 7008 fps= 24 q=28.0 size=   69281KiB time=00:04:53.58 bitrate=1933.2kbits/s speed=0.995x elapsed=0:04:55.09    frame= 7021 fps= 24 q=28.0 size=   69413KiB time=00:04:54.12 bitrate=1933.3kbits/s speed=0.995x elapsed=0:04:55.62    frame= 7030 fps= 24 q=28.0 size=   69564KiB time=00:04:54.58 bitrate=1934.5kbits/s speed=0.995x elapsed=0:04:56.13    frame= 7044 fps= 24 q=28.0 size=   69703KiB time=00:04:55.08 bitrate=1935.1kbits/s speed=0.995x elapsed=0:04:56.65    frame= 7059 fps= 24 q=28.0 size=   69838KiB time=00:04:55.79 bitrate=1934.2kbits/s speed=0.995x elapsed=0:04:57.16    frame= 7074 fps= 24 q=28.0 size=   69953KiB time=00:04:56.25 bitrate=1934.4kbits/s speed=0.995x elapsed=0:04:57.68    frame= 7081 fps= 24 q=28.0 size=   69997KiB time=00:04:56.66 bitrate=1932.9kbits/s speed=0.995x elapsed=0:04:58.19    frame= 7098 fps= 24 q=28.0 size=   70190KiB time=00:04:57.25 bitrate=1934.4kbits/s speed=0.995x elapsed=0:04:58.71    frame= 7111 fps= 24 q=28.0 size=   70265KiB time=00:04:57.83 bitrate=1932.7kbits/s speed=0.995x elapsed=0:04:59.23    frame= 7123 fps= 24 q=28.0 size=   70346KiB time=00:04:58.33 bitrate=1931.6kbits/s speed=0.995x elapsed=0:04:59.74    frame= 7135 fps= 24 q=28.0 size=   70438KiB time=00:04:58.83 bitrate=1930.9kbits/s speed=0.995x elapsed=0:05:00.25    frame= 7143 fps= 24 q=28.0 size=   70584KiB time=00:04:59.25 bitrate=1932.2kbits/s speed=0.995x elapsed=0:05:00.77    frame= 7155 fps= 24 q=28.0 size=   70719KiB time=00:04:59.79 bitrate=1932.4kbits/s speed=0.995x elapsed=0:05:01.29    frame= 7166 fps= 24 q=28.0 size=   70829KiB time=00:05:00.20 bitrate=1932.8kbits/s speed=0.995x elapsed=0:05:01.80    frame= 7180 fps= 24 q=28.0 size=   70968KiB time=00:05:00.79 bitrate=1932.8kbits/s speed=0.995x elapsed=0:05:02.32    frame= 7193 fps= 24 q=28.0 size=   71108KiB time=00:05:01.33 bitrate=1933.1kbits/s speed=0.995x elapsed=0:05:02.84    frame= 7202 fps= 24 q=28.0 size=   71242KiB time=00:05:01.70 bitrate=1934.4kbits/s speed=0.995x elapsed=0:05:03.35    frame= 7214 fps= 24 q=28.0 size=   71372KiB time=00:05:02.25 bitrate=1934.4kbits/s speed=0.995x elapsed=0:05:03.86    frame= 7228 fps= 24 q=28.0 size=   71499KiB time=00:05:02.79 bitrate=1934.4kbits/s speed=0.995x elapsed=0:05:04.38    frame= 7243 fps= 24 q=28.0 size=   71642KiB time=00:05:03.41 bitrate=1934.3kbits/s speed=0.995x elapsed=0:05:04.90    frame= 7258 fps= 24 q=28.0 size=   71775KiB time=00:05:04.20 bitrate=1932.8kbits/s speed=0.996x elapsed=0:05:05.41    frame= 7268 fps= 24 q=28.0 size=   71915KiB time=00:05:04.45 bitrate=1935.0kbits/s speed=0.995x elapsed=0:05:05.93    frame= 7283 fps= 24 q=28.0 size=   72027KiB time=00:05:05.00 bitrate=1934.6kbits/s speed=0.995x elapsed=0:05:06.44    frame= 7295 fps= 24 q=28.0 size=   72090KiB time=00:05:05.50 bitrate=1933.1kbits/s speed=0.995x elapsed=0:05:06.95    frame= 7308 fps= 24 q=28.0 size=   72176KiB time=00:05:06.08 bitrate=1931.7kbits/s speed=0.995x elapsed=0:05:07.48    frame= 7320 fps= 24 q=28.0 size=   72260KiB time=00:05:06.58 bitrate=1930.8kbits/s speed=0.995x elapsed=0:05:08.00    frame= 7330 fps= 24 q=28.0 size=   72409KiB time=00:05:07.08 bitrate=1931.6kbits/s speed=0.995x elapsed=0:05:08.51    frame= 7344 fps= 24 q=28.0 size=   72559KiB time=00:05:07.62 bitrate=1932.2kbits/s speed=0.995x elapsed=0:05:09.04    frame= 7355 fps= 24 q=28.0 size=   72690KiB time=00:05:08.16 bitrate=1932.3kbits/s speed=0.995x elapsed=0:05:09.56    frame= 7368 fps= 24 q=28.0 size=   72813KiB time=00:05:08.66 bitrate=1932.4kbits/s speed=0.995x elapsed=0:05:10.07    frame= 7381 fps= 24 q=28.0 size=   72938KiB time=00:05:09.16 bitrate=1932.6kbits/s speed=0.995x elapsed=0:05:10.58    frame= 7388 fps= 24 q=28.0 size=   73070KiB time=00:05:09.54 bitrate=1933.8kbits/s speed=0.995x elapsed=0:05:11.09    frame= 7400 fps= 24 q=28.0 size=   73193KiB time=00:05:10.04 bitrate=1933.9kbits/s speed=0.995x elapsed=0:05:11.62    frame= 7413 fps= 24 q=28.0 size=   73332KiB time=00:05:10.54 bitrate=1934.5kbits/s speed=0.995x elapsed=0:05:12.13    frame= 7427 fps= 24 q=28.0 size=   73463KiB time=00:05:11.12 bitrate=1934.3kbits/s speed=0.995x elapsed=0:05:12.65    frame= 7441 fps= 24 q=28.0 size=   73574KiB time=00:05:11.70 bitrate=1933.6kbits/s speed=0.995x elapsed=0:05:13.16    frame= 7452 fps= 24 q=28.0 size=   73734KiB time=00:05:12.25 bitrate=1934.4kbits/s speed=0.995x elapsed=0:05:13.68    frame= 7468 fps= 24 q=28.0 size=   73868KiB time=00:05:12.75 bitrate=1934.9kbits/s speed=0.995x elapsed=0:05:14.20    frame= 7480 fps= 24 q=28.0 size=   73939KiB time=00:05:13.25 bitrate=1933.6kbits/s speed=0.995x elapsed=0:05:14.71    frame= 7493 fps= 24 q=28.0 size=   74027KiB time=00:05:13.83 bitrate=1932.3kbits/s speed=0.996x elapsed=0:05:15.22    frame= 7501 fps= 24 q=28.0 size=   74060KiB time=00:05:14.25 bitrate=1930.6kbits/s speed=0.995x elapsed=0:05:15.74    frame= 7516 fps= 24 q=28.0 size=   74249KiB time=00:05:14.83 bitrate=1932.0kbits/s speed=0.995x elapsed=0:05:16.25    frame= 7530 fps= 24 q=28.0 size=   74397KiB time=00:05:15.37 bitrate=1932.5kbits/s speed=0.996x elapsed=0:05:16.78    frame= 7542 fps= 24 q=28.0 size=   74532KiB time=00:05:15.87 bitrate=1932.9kbits/s speed=0.996x elapsed=0:05:17.29    frame= 7554 fps= 24 q=28.0 size=   74660KiB time=00:05:16.41 bitrate=1932.9kbits/s speed=0.996x elapsed=0:05:17.80    frame= 7562 fps= 24 q=28.0 size=   74786KiB time=00:05:16.83 bitrate=1933.6kbits/s speed=0.995x elapsed=0:05:18.32    frame= 7576 fps= 24 q=28.0 size=   74917KiB time=00:05:17.37 bitrate=1933.7kbits/s speed=0.995x elapsed=0:05:18.84    frame= 7588 fps= 24 q=28.0 size=   75044KiB time=00:05:17.87 bitrate=1934.0kbits/s speed=0.995x elapsed=0:05:19.35    frame= 7603 fps= 24 q=25.0 size=   75198KiB time=00:05:18.45 bitrate=1934.4kbits/s speed=0.996x elapsed=0:05:19.87    frame= 7616 fps= 24 q=28.0 size=   75313KiB time=00:05:18.95 bitrate=1934.3kbits/s speed=0.996x elapsed=0:05:20.38    frame= 7623 fps= 24 q=28.0 size=   75452KiB time=00:05:19.33 bitrate=1935.6kbits/s speed=0.995x elapsed=0:05:20.89    frame= 7638 fps= 24 q=28.0 size=   75584KiB time=00:05:20.12 bitrate=1934.2kbits/s speed=0.996x elapsed=0:05:21.42    frame= 7653 fps= 24 q=28.0 size=   75702KiB time=00:05:20.50 bitrate=1935.0kbits/s speed=0.996x elapsed=0:05:21.93    frame= 7665 fps= 24 q=28.0 size=   75786KiB time=00:05:21.00 bitrate=1934.1kbits/s speed=0.996x elapsed=0:05:22.45    frame= 7677 fps= 24 q=28.0 size=   75861KiB time=00:05:21.50 bitrate=1933.0kbits/s speed=0.995x elapsed=0:05:22.96    frame= 7689 fps= 24 q=28.0 size=   75988KiB time=00:05:22.08 bitrate=1932.7kbits/s speed=0.996x elapsed=0:05:23.47    frame= 7702 fps= 24 q=28.0 size=   76076KiB time=00:05:22.58 bitrate=1932.0kbits/s speed=0.996x elapsed=0:05:23.99    frame= 7714 fps= 24 q=28.0 size=   76184KiB time=00:05:23.08 bitrate=1931.7kbits/s speed=0.996x elapsed=0:05:24.51    frame= 7727 fps= 24 q=28.0 size=   76313KiB time=00:05:23.62 bitrate=1931.7kbits/s speed=0.996x elapsed=0:05:25.02    frame= 7739 fps= 24 q=28.0 size=   76455KiB time=00:05:24.12 bitrate=1932.3kbits/s speed=0.996x elapsed=0:05:25.54    frame= 7746 fps= 24 q=28.0 size=   76580KiB time=00:05:24.54 bitrate=1933.0kbits/s speed=0.995x elapsed=0:05:26.06    frame= 7760 fps= 24 q=28.0 size=   76714KiB time=00:05:25.16 bitrate=1932.7kbits/s speed=0.996x elapsed=0:05:26.57    frame= 7772 fps= 24 q=28.0 size=   76835KiB time=00:05:25.58 bitrate=1933.2kbits/s speed=0.995x elapsed=0:05:27.09    frame= 7784 fps= 24 q=28.0 size=   76958KiB time=00:05:26.08 bitrate=1933.4kbits/s speed=0.995x elapsed=0:05:27.60    frame= 7799 fps= 24 q=28.0 size=   77111KiB time=00:05:26.70 bitrate=1933.5kbits/s speed=0.996x elapsed=0:05:28.11    frame= 7806 fps= 24 q=28.0 size=   77230KiB time=00:05:27.00 bitrate=1934.8kbits/s speed=0.995x elapsed=0:05:28.63    frame= 7820 fps= 24 q=28.0 size=   77361KiB time=00:05:27.58 bitrate=1934.6kbits/s speed=0.995x elapsed=0:05:29.14    frame= 7838 fps= 24 q=28.0 size=   77518KiB time=00:05:28.33 bitrate=1934.1kbits/s speed=0.996x elapsed=0:05:29.67    frame= 7850 fps= 24 q=28.0 size=   77600KiB time=00:05:28.75 bitrate=1933.7kbits/s speed=0.996x elapsed=0:05:30.18    frame= 7861 fps= 24 q=28.0 size=   77677KiB time=00:05:29.25 bitrate=1932.7kbits/s speed=0.996x elapsed=0:05:30.69    frame= 7872 fps= 24 q=28.0 size=   77813KiB time=00:05:29.75 bitrate=1933.1kbits/s speed=0.996x elapsed=0:05:31.21    frame= 7887 fps= 24 q=28.0 size=   77918KiB time=00:05:30.33 bitrate=1932.3kbits/s speed=0.996x elapsed=0:05:31.72    frame= 7899 fps= 24 q=28.0 size=   78007KiB time=00:05:30.83 bitrate=1931.6kbits/s speed=0.996x elapsed=0:05:32.24    frame= 7911 fps= 24 q=28.0 size=   78120KiB time=00:05:31.33 bitrate=1931.5kbits/s speed=0.996x elapsed=0:05:32.76    frame= 7921 fps= 24 q=28.0 size=   78221KiB time=00:05:31.87 bitrate=1930.8kbits/s speed=0.996x elapsed=0:05:33.27    frame= 7930 fps= 24 q=28.0 size=   78384KiB time=00:05:32.25 bitrate=1932.7kbits/s speed=0.995x elapsed=0:05:33.78    frame= 7943 fps= 24 q=28.0 size=   78523KiB time=00:05:32.79 bitrate=1932.9kbits/s speed=0.995x elapsed=0:05:34.30    frame= 7956 fps= 24 q=28.0 size=   78645KiB time=00:05:33.29 bitrate=1933.0kbits/s speed=0.995x elapsed=0:05:34.81    frame= 7969 fps= 24 q=28.0 size=   78792KiB time=00:05:33.83 bitrate=1933.5kbits/s speed=0.995x elapsed=0:05:35.34    frame= 7981 fps= 24 q=28.0 size=   78898KiB time=00:05:34.33 bitrate=1933.2kbits/s speed=0.995x elapsed=0:05:35.85    frame= 7990 fps= 24 q=28.0 size=   79049KiB time=00:05:34.75 bitrate=1934.5kbits/s speed=0.995x elapsed=0:05:36.36    frame= 8004 fps= 24 q=28.0 size=   79188KiB time=00:05:35.33 bitrate=1934.5kbits/s speed=0.995x elapsed=0:05:36.88    frame= 8019 fps= 24 q=25.0 size=   79323KiB time=00:05:36.00 bitrate=1934.0kbits/s speed=0.996x elapsed=0:05:37.39    frame= 8034 fps= 24 q=28.0 size=   79454KiB time=00:05:36.45 bitrate=1934.5kbits/s speed=0.996x elapsed=0:05:37.92    frame= 8042 fps= 24 q=28.0 size=   79565KiB time=00:05:36.91 bitrate=1934.6kbits/s speed=0.996x elapsed=0:05:38.43    frame= 8059 fps= 24 q=28.0 size=   79676KiB time=00:05:37.50 bitrate=1933.9kbits/s speed=0.996x elapsed=0:05:38.94    [vost#0:0/libx264 @ 000002b78f3a8680] Error submitting a packet to the muxer: Immediate exit requested
    Last message repeated 1 times
[out#0/flv @ 000002b78d3de1c0] Error muxing a packet
[out#0/flv @ 000002b78d3de1c0] Task finished with error code: -1414092869 (Immediate exit requested)
[out#0/flv @ 000002b78d3de1c0] Terminating thread with return code -1414092869 (Immediate exit requested)
[flv @ 000002b78f260780] Failed to update header with correct duration.
[flv @ 000002b78f260780] Failed to update header with correct filesize.
[out#0/flv @ 000002b78d3de1c0] Error writing trailer: Immediate exit requested
[out#0/flv @ 000002b78d3de1c0] Error closing file: Immediate exit requested
[out#0/flv @ 000002b78d3de1c0] video:74407KiB audio:5388KiB subtitle:0KiB other streams:0KiB global headers:0KiB muxing overhead: 0.480675%
frame= 8114 fps= 24 q=-1.0 Lsize=   80179KiB time=00:05:39.94 bitrate=1932.1kbits/s speed=0.996x elapsed=0:05:41.16    
[libx264 @ 000002b78f3a8900] frame I:136   Avg QP:20.61  size: 80985
[libx264 @ 000002b78f3a8900] frame P:2444  Avg QP:23.72  size: 17053
[libx264 @ 000002b78f3a8900] frame B:5537  Avg QP:26.68  size:  4248
[libx264 @ 000002b78f3a8900] consecutive B-frames:  3.3% 17.1%  0.0% 79.5%
[libx264 @ 000002b78f3a8900] mb I  I16..4: 15.0% 30.9% 54.1%
[libx264 @ 000002b78f3a8900] mb P  I16..4:  4.9%  8.2%  3.1%  P16..4: 30.3% 12.5%  7.7%  0.0%  0.0%    skip:33.4%
[libx264 @ 000002b78f3a8900] mb B  I16..4:  0.6%  0.6%  0.1%  B16..8: 12.9%  6.5%  1.0%  direct: 3.2%  skip:75.0%  L0:32.9% L1:45.7% BI:21.4%
[libx264 @ 000002b78f3a8900] 8x8 transform intra:45.5% inter:26.0%
[libx264 @ 000002b78f3a8900] coded y,uvDC,uvAC intra: 60.8% 50.9% 15.7% inter: 7.4% 5.8% 0.1%
[libx264 @ 000002b78f3a8900] i16 v,h,dc,p: 47% 17% 22% 14%
[libx264 @ 000002b78f3a8900] i8 v,h,dc,ddl,ddr,vr,hd,vl,hu: 30% 14% 26%  3%  6%  8%  4%  5%  3%
[libx264 @ 000002b78f3a8900] i4 v,h,dc,ddl,ddr,vr,hd,vl,hu: 32% 14% 15%  4%  8% 10%  6%  6%  3%
[libx264 @ 000002b78f3a8900] i8c dc,h,v,p: 45% 20% 32%  4%
[libx264 @ 000002b78f3a8900] Weighted P-Frames: Y:0.0% UV:0.0%
[libx264 @ 000002b78f3a8900] kb/s:1793.23
[aac @ 000002b78f5c5dc0] Qavg: 550.779
Exiting normally, received signal 2.
